<?xml version="1.0" encoding="UTF-8" standalone="no"?>
<!DOCTYPE svg PUBLIC "-//W3C//DTD SVG 1.1//EN" "http://www.w3.org/Graphics/SVG/1.1/DTD/svg11.dtd">
<!-- Created with Vectornator (http://vectornator.io/) -->
<svg height="100%" stroke-miterlimit="10" style="fill-rule:nonzero;clip-rule:evenodd;stroke-linecap:round;stroke-linejoin:round;" version="1.1" viewBox="0 0 841.995 595.35" width="100%" xml:space="preserve" xmlns="http://www.w3.org/2000/svg" xmlns:vectornator="http://vectornator.io" xmlns:xlink="http://www.w3.org/1999/xlink">
<defs/>
<clipPath id="ArtboardFrame">
<rect height="595.35" width="841.995" x="0" y="0"/>
</clipPath>
<g clip-path="url(#ArtboardFrame)" id="Layer-1" vectornator:layerName="Layer 1">
<path d="M279.248-5.68434e-14L562.747-5.68434e-14L562.747 595.35L279.248 595.35L279.248-5.68434e-14Z" fill="#b2b2b2" fill-rule="nonzero" opacity="1" stroke="none" vectornator:layerName="Rectangle 1"/>
<path d="M279.248 112.826L704.497 112.826L704.497 268.696L279.248 268.696L279.248 112.826Z" fill="#3a79f4" fill-rule="nonzero" opacity="0.486538" stroke="none" vectornator:layerName="Rectangle 2"/>
<path d="M208.373 326.654L633.622 326.654L633.622 482.524L208.373 482.524L208.373 326.654Z" fill="#3a79f4" fill-rule="nonzero" opacity="0.486538" stroke="none" vectornator:layerName="Rectangle 3"/>
<g opacity="1" vectornator:layerName="Curve 1">
<path d="M266.211 305.195C304.71 290.208 392.881 282.58 462.689 298.416C551.149 318.484 662.133 270.977 662.133 270.977" fill="none" stroke="#4d81fe" stroke-linecap="round" stroke-linejoin="round" stroke-width="6.60585"/>
<g fill="#4d81fe" stroke="none">
<path d="M270.943 301.875L271.858 272.989L247.285 318.475L298.417 310.842L270.943 301.875Z" fill="#4d81fe"/>
</g>
</g>
<path d="M633.622 112.826L633.622 268.696" fill="none" opacity="0.486538" stroke="#000000" stroke-linecap="butt" stroke-linejoin="round" stroke-width="3.53937" vectornator:layerName="Line 1"/>
<g fill="#ffffff" opacity="1" stroke="none" vectornator:layerName="Text 1">
<path d="M392.362 16.2522C391.796 16.8417 391.088 17.384 390.24 17.9027C389.391 18.3743 388.589 18.7043 387.835 18.893L387.835 21.6281C389.391 21.1801 390.664 20.4963 391.678 19.5767L391.678 33.0871L394.437 33.0871L394.437 16.2522L392.362 16.2522Z"/>
<path d="M403.632 15.9221C401.652 15.9221 400.119 16.7238 399.034 18.3743C397.997 19.9304 397.478 22.0289 397.478 24.6697C397.478 27.3104 397.997 29.4089 399.034 30.9651C400.119 32.592 401.652 33.4172 403.632 33.4172C405.589 33.4172 407.122 32.592 408.23 30.9651C409.267 29.4089 409.786 27.3104 409.786 24.6697C409.786 22.0289 409.267 19.9304 408.23 18.3743C407.122 16.7238 405.589 15.9221 403.632 15.9221ZM403.632 18.2564C404.952 18.2564 405.896 18.9873 406.461 20.4963C406.839 21.5102 407.027 22.9013 407.027 24.6697C407.027 26.4145 406.839 27.8056 406.461 28.843C405.896 30.3284 404.952 31.083 403.632 31.083C402.288 31.083 401.345 30.3284 400.803 28.843C400.425 27.8056 400.237 26.4145 400.237 24.6697C400.237 22.9013 400.425 21.5102 400.803 20.4963C401.345 18.9873 402.288 18.2564 403.632 18.2564Z"/>
<path d="M417.779 15.9221C415.798 15.9221 414.266 16.7238 413.181 18.3743C412.144 19.9304 411.625 22.0289 411.625 24.6697C411.625 27.3104 412.144 29.4089 413.181 30.9651C414.266 32.592 415.798 33.4172 417.779 33.4172C419.736 33.4172 421.269 32.592 422.377 30.9651C423.414 29.4089 423.933 27.3104 423.933 24.6697C423.933 22.0289 423.414 19.9304 422.377 18.3743C421.269 16.7238 419.736 15.9221 417.779 15.9221ZM417.779 18.2564C419.099 18.2564 420.043 18.9873 420.608 20.4963C420.986 21.5102 421.174 22.9013 421.174 24.6697C421.174 26.4145 420.986 27.8056 420.608 28.843C420.043 30.3284 419.099 31.083 417.779 31.083C416.435 31.083 415.492 30.3284 414.95 28.843C414.572 27.8056 414.384 26.4145 414.384 24.6697C414.384 22.9013 414.572 21.5102 414.95 20.4963C415.492 18.9873 416.435 18.2564 417.779 18.2564Z"/>
<path d="M424.97 20.8971L429.474 33.0871L432.162 33.0871L436.665 20.8971L433.742 20.8971L430.818 29.739L427.894 20.8971L424.97 20.8971Z"/>
<path d="M436.901 20.8971L441.004 33.0871L443.503 33.0871L445.955 24.1745L448.384 33.0871L450.883 33.0871L454.986 20.8971L452.015 20.8971L449.586 29.904L447.181 20.8971L444.705 20.8971L442.3 29.904L439.872 20.8971L436.901 20.8971Z"/>
</g>
<g fill="#1565ff" opacity="1" stroke="none" vectornator:layerName="Text 2">
<path d="M463.237 88.0662C462.671 88.6557 461.963 89.198 461.115 89.7167C460.266 90.1883 459.464 90.5184 458.71 90.707L458.71 93.4421C460.266 92.9941 461.539 92.3103 462.553 91.3907L462.553 104.901L465.312 104.901L465.312 88.0662L463.237 88.0662Z"/>
<path d="M469.603 88.0662L468.683 97.5447L471.253 97.5447C471.583 96.9552 472.031 96.5308 472.621 96.2479C473.14 95.9885 473.776 95.8706 474.507 95.8706C475.592 95.8706 476.441 96.1771 477.006 96.8373C477.572 97.4739 477.879 98.3699 477.879 99.5017C477.879 100.539 477.525 101.364 476.865 101.977C476.181 102.59 475.332 102.897 474.342 102.897C473.422 102.897 472.692 102.685 472.173 102.307C471.56 101.86 471.206 101.176 471.088 100.256L468.377 100.256C468.495 101.812 469.155 103.062 470.381 103.982C471.465 104.807 472.786 105.231 474.318 105.231C475.993 105.231 477.431 104.736 478.657 103.746C479.977 102.638 480.637 101.223 480.637 99.4781C480.637 97.6626 480.119 96.2243 479.128 95.1869C478.138 94.1494 476.841 93.6307 475.262 93.6307C474.507 93.6307 473.823 93.7486 473.21 93.9844C472.527 94.2201 471.937 94.5974 471.418 95.1161L471.348 95.1161L471.819 90.4948L479.859 90.4948L479.859 88.0662L469.603 88.0662Z"/>
<path d="M488.654 87.7361C486.673 87.7361 485.141 88.5378 484.056 90.1883C483.019 91.7444 482.5 93.8429 482.5 96.4837C482.5 99.1244 483.019 101.223 484.056 102.779C485.141 104.406 486.673 105.231 488.654 105.231C490.611 105.231 492.144 104.406 493.252 102.779C494.289 101.223 494.808 99.1244 494.808 96.4837C494.808 93.8429 494.289 91.7444 493.252 90.1883C492.144 88.5378 490.611 87.7361 488.654 87.7361ZM488.654 90.0704C489.974 90.0704 490.918 90.8013 491.483 92.3103C491.861 93.3242 492.049 94.7153 492.049 96.4837C492.049 98.2285 491.861 99.6196 491.483 100.657C490.918 102.142 489.974 102.897 488.654 102.897C487.31 102.897 486.367 102.142 485.825 100.657C485.447 99.6196 485.259 98.2285 485.259 96.4837C485.259 94.7153 485.447 93.3242 485.825 92.3103C486.367 90.8013 487.31 90.0704 488.654 90.0704Z"/>
<path d="M495.845 92.7111L500.349 104.901L503.037 104.901L507.54 92.7111L504.617 92.7111L501.693 101.553L498.769 92.7111L495.845 92.7111Z"/>
<path d="M507.776 92.7111L511.879 104.901L514.378 104.901L516.83 95.9885L519.259 104.901L521.758 104.901L525.861 92.7111L522.89 92.7111L520.461 101.718L518.056 92.7111L515.58 92.7111L513.175 101.718L510.747 92.7111L507.776 92.7111Z"/>
</g>
<g fill="#1565ff" opacity="1" stroke="none" vectornator:layerName="Text 3">
<path d="M646.462 87.8468C644.647 87.8468 643.185 88.4599 642.077 89.6859C640.992 90.8413 640.45 92.3503 640.426 94.2365L643.185 94.2365C643.232 92.9162 643.515 91.9023 644.034 91.2421C644.552 90.5348 645.33 90.1811 646.368 90.1811C647.335 90.1811 648.065 90.3933 648.561 90.8413C649.032 91.2893 649.292 91.973 649.292 92.8926C649.292 93.8357 648.914 94.7317 648.183 95.5569C647.712 96.0521 646.957 96.6887 645.873 97.4432C643.916 98.7872 642.619 99.8246 642.006 100.532C640.874 101.805 640.332 103.291 640.332 105.012L652.074 105.012L652.074 102.583L643.774 102.583C644.151 101.734 645.189 100.744 646.91 99.6124C648.561 98.5042 649.74 97.6082 650.4 96.9009C651.484 95.6984 652.05 94.378 652.05 92.9162C652.05 91.4071 651.531 90.2047 650.494 89.2615C649.433 88.3184 648.089 87.8468 646.462 87.8468Z"/>
<path d="M655.445 88.1769L654.526 97.6554L657.096 97.6554C657.426 97.0659 657.874 96.6415 658.464 96.3586C658.982 96.0992 659.619 95.9813 660.35 95.9813C661.434 95.9813 662.283 96.2879 662.849 96.948C663.415 97.5847 663.721 98.4806 663.721 99.6124C663.721 100.65 663.368 101.475 662.708 102.088C662.024 102.701 661.175 103.008 660.185 103.008C659.265 103.008 658.534 102.795 658.016 102.418C657.402 101.97 657.049 101.286 656.931 100.367L654.219 100.367C654.337 101.923 654.997 103.173 656.224 104.092C657.308 104.918 658.629 105.342 660.161 105.342C661.835 105.342 663.273 104.847 664.5 103.856C665.82 102.748 666.48 101.334 666.48 99.5888C666.48 97.7733 665.961 96.335 664.971 95.2976C663.981 94.2601 662.684 93.7414 661.104 93.7414C660.35 93.7414 659.666 93.8593 659.053 94.0951C658.369 94.3309 657.78 94.7081 657.261 95.2268L657.19 95.2268L657.662 90.6055L665.702 90.6055L665.702 88.1769L655.445 88.1769Z"/>
<path d="M667.541 92.8218L672.045 105.012L674.733 105.012L679.236 92.8218L676.312 92.8218L673.389 101.664L670.465 92.8218L667.541 92.8218Z"/>
<path d="M679.472 92.8218L683.574 105.012L686.074 105.012L688.526 96.0992L690.954 105.012L693.454 105.012L697.556 92.8218L694.585 92.8218L692.157 101.829L689.752 92.8218L687.276 92.8218L684.871 101.829L682.443 92.8218L679.472 92.8218Z"/>
</g>
<g fill="#1565ff" opacity="1" stroke="none" vectornator:layerName="Text 4">
<path d="M67.2751 396.017L67.2751 413.182L69.963 413.182L69.963 396.017L67.2751 396.017Z"/>
<path d="M78.2154 400.662C76.3999 400.662 74.9616 401.275 73.9242 402.525C72.8396 403.751 72.3209 405.26 72.3209 407.075C72.3209 409.103 72.8867 410.683 74.0185 411.838C75.0795 412.946 76.5178 413.512 78.3333 413.512C79.9602 413.512 81.3042 413.041 82.3888 412.121C83.2376 411.367 83.8035 410.4 84.0864 409.268L81.3985 409.268C81.0684 409.952 80.7147 410.447 80.3139 410.754C79.7952 411.131 79.135 411.319 78.3097 411.319C77.343 411.319 76.5885 411.013 76.0698 410.423C75.5511 409.834 75.2446 408.962 75.1502 407.83L84.275 407.83C84.275 405.637 83.7799 403.916 82.8132 402.69C81.7522 401.322 80.2196 400.662 78.2154 400.662ZM78.2862 402.855C80.1724 402.855 81.2334 403.822 81.4692 405.802L75.1974 405.802C75.3625 404.835 75.6925 404.104 76.1877 403.609C76.7064 403.091 77.3902 402.855 78.2862 402.855Z"/>
<path d="M91.1835 396.347C90.0989 396.347 89.2501 396.63 88.6842 397.243C88.0947 397.833 87.8118 398.658 87.8118 399.695L87.8118 400.992L85.1003 400.992L85.1003 403.185L87.8118 403.185L87.8118 413.182L90.4997 413.182L90.4997 403.185L93.6121 403.185L93.6121 400.992L90.4997 400.992L90.4997 399.766C90.4997 399.365 90.5705 399.082 90.7591 398.894C90.9477 398.705 91.2071 398.611 91.5607 398.611L93.7771 398.611L93.7771 396.347L91.1835 396.347Z"/>
<path d="M99.1294 397.055L96.4415 398.163L96.4415 400.992L94.2487 400.992L94.2487 403.208L96.4415 403.208L96.4415 410.093C96.4415 411.084 96.6772 411.815 97.1488 412.333C97.6439 412.899 98.422 413.182 99.4831 413.182L101.534 413.182L101.534 410.966L99.931 410.966C99.6481 410.966 99.4595 410.895 99.318 410.754C99.1765 410.588 99.1294 410.376 99.1294 410.093L99.1294 403.208L101.841 403.208L101.841 400.992L99.1294 400.992L99.1294 397.055Z"/>
<path d="M105.661 400.898C105.142 400.898 104.694 401.063 104.364 401.44C103.987 401.794 103.821 402.242 103.821 402.76C103.821 403.279 103.987 403.704 104.364 404.081C104.694 404.411 105.142 404.6 105.661 404.6C106.179 404.6 106.604 404.411 106.981 404.081C107.335 403.704 107.523 403.279 107.523 402.76C107.523 402.242 107.335 401.794 106.981 401.44C106.604 401.063 106.179 400.898 105.661 400.898ZM105.661 409.527C105.142 409.527 104.694 409.692 104.364 410.07C103.987 410.423 103.821 410.871 103.821 411.39C103.821 411.909 103.987 412.333 104.364 412.711C104.694 413.041 105.142 413.229 105.661 413.229C106.179 413.229 106.604 413.041 106.981 412.711C107.335 412.333 107.523 411.909 107.523 411.39C107.523 410.871 107.335 410.423 106.981 410.07C106.604 409.692 106.179 409.527 105.661 409.527Z"/>
<path d="M110.093 405.967L110.093 408.183L122 408.183L122 405.967L110.093 405.967Z"/>
<path d="M130.512 396.017C128.697 396.017 127.235 396.63 126.127 397.856C125.042 399.012 124.5 400.521 124.476 402.407L127.235 402.407C127.282 401.086 127.565 400.073 128.084 399.412C128.602 398.705 129.38 398.351 130.418 398.351C131.384 398.351 132.115 398.564 132.611 399.012C133.082 399.46 133.341 400.143 133.341 401.063C133.341 402.006 132.964 402.902 132.233 403.727C131.762 404.222 131.007 404.859 129.923 405.613C127.966 406.957 126.669 407.995 126.056 408.702C124.924 409.975 124.382 411.461 124.382 413.182L136.124 413.182L136.124 410.754L127.824 410.754C128.201 409.905 129.239 408.914 130.96 407.783C132.611 406.674 133.789 405.779 134.45 405.071C135.534 403.869 136.1 402.548 136.1 401.086C136.1 399.577 135.581 398.375 134.544 397.432C133.483 396.489 132.139 396.017 130.512 396.017Z"/>
<path d="M139.495 396.347L138.576 405.826L141.146 405.826C141.476 405.236 141.924 404.812 142.513 404.529C143.032 404.269 143.669 404.152 144.4 404.152C145.484 404.152 146.333 404.458 146.899 405.118C147.465 405.755 147.771 406.651 147.771 407.783C147.771 408.82 147.418 409.645 146.758 410.258C146.074 410.871 145.225 411.178 144.235 411.178C143.315 411.178 142.584 410.966 142.065 410.588C141.452 410.14 141.099 409.457 140.981 408.537L138.269 408.537C138.387 410.093 139.047 411.343 140.274 412.263C141.358 413.088 142.678 413.512 144.211 413.512C145.885 413.512 147.323 413.017 148.549 412.027C149.87 410.919 150.53 409.504 150.53 407.759C150.53 405.944 150.011 404.505 149.021 403.468C148.031 402.43 146.734 401.912 145.154 401.912C144.4 401.912 143.716 402.03 143.103 402.265C142.419 402.501 141.83 402.878 141.311 403.397L141.24 403.397L141.712 398.776L149.752 398.776L149.752 396.347L139.495 396.347Z"/>
<path d="M151.591 400.992L156.095 413.182L158.782 413.182L163.286 400.992L160.362 400.992L157.439 409.834L154.515 400.992L151.591 400.992Z"/>
<path d="M163.522 400.992L167.624 413.182L170.124 413.182L172.576 404.269L175.004 413.182L177.504 413.182L181.606 400.992L178.635 400.992L176.207 409.999L173.802 400.992L171.326 400.992L168.921 409.999L166.493 400.992L163.522 400.992Z"/>
</g>
</g>
</svg>
