<?xml version="1.0" encoding="UTF-8"?>
<svg id="_圖層_1" data-name="圖層 1" xmlns="http://www.w3.org/2000/svg" viewBox="0 0 1708 753.2">
  <defs>
    <style>
      .cls-1 {
        fill: #ff8435;
      }

      .cls-2 {
        fill: #ff330a;
      }

      .cls-3 {
        fill: #e6e6e6;
      }

      .cls-4 {
        fill: #00df16;
      }

      .cls-5 {
        stroke-linecap: round;
        stroke-linejoin: round;
      }

      .cls-5, .cls-6 {
        fill: none;
        stroke: #000;
        stroke-width: 7px;
      }

      .cls-6 {
        stroke-miterlimit: 10;
      }
    </style>
  </defs>
  <rect class="cls-3" x="427.3" y="56.46" width="937.67" height="500.34"/>
  <rect class="cls-2" x="1364.97" y="260.09" width="343.03" height="93.55"/>
  <rect class="cls-1" x="1021.94" y="259.57" width="343.03" height="93.55"/>
  <rect class="cls-4" x="84.27" y="260.98" width="343.03" height="93.55"/>
  <g>
    <line class="cls-5" x1="1234.9" y1="411.77" x2="1470.05" y2="411.77"/>
    <polyline class="cls-5" points="1253.67 399.66 1234.06 412.14 1253.67 424.62"/>
  </g>
  <g>
    <path d="m1456.01,175.65c0-1.25.28-2.16.84-2.73.56-.57,1.45-.83,2.68-.78h7.77c1.12,0,1.94.26,2.46.78.52.52.75,1.33.7,2.42v6.29c0,1.15-.25,1.98-.76,2.5-.51.52-1.31.76-2.4.7h-8.28v20.04c0,1.07-.51,1.6-1.52,1.6s-1.48-.53-1.48-1.6v-29.22Zm11.6,1.56v-1.29c0-.78-.4-1.18-1.21-1.21h-6.09c-.81,0-1.24.42-1.29,1.25v1.25h8.59Zm-1.21,5.08c.75,0,1.16-.42,1.21-1.25v-1.41h-8.59v2.66h7.38Zm-3.98,11.84h4.34l.04-3.09-.04-1.21h-3.05c-1.02,0-1.52-.44-1.52-1.33s.51-1.33,1.52-1.33h17.38c1.02,0,1.52.46,1.52,1.37,0,.86-.51,1.29-1.52,1.29h-3.2v4.3h4.57c1.02,0,1.52.46,1.52,1.37s-.51,1.33-1.52,1.33h-4.57v7.27c0,1.07-.48,1.6-1.45,1.6s-1.45-.53-1.45-1.6v-7.27h-5.59c-.29,2.73-1.13,4.84-2.54,6.33-1.46,1.54-2.9,2.3-4.34,2.3-.96,0-1.45-.5-1.45-1.48,0-.6.52-1.12,1.56-1.56,2.34-.96,3.65-2.83,3.91-5.59h-4.14c-1.02,0-1.52-.46-1.52-1.37s.51-1.33,1.52-1.33Zm12.58,0v-4.3h-5.39l.04,1.91-.08,2.38h5.43Zm5.86,10.66c0-1.09.53-1.64,1.6-1.64h1.64c.55,0,.97-.14,1.27-.43.3-.29.45-.7.45-1.25v-16.64h-8.75c-1.15,0-1.98-.25-2.5-.76-.52-.51-.76-1.32-.7-2.44v-6.29c0-1.12.26-1.94.78-2.46s1.33-.77,2.42-.74h8.24c1.25,0,2.15.28,2.71.84.56.56.83,1.45.8,2.68v26.56c0,1.51-.33,2.61-.98,3.3-.65.69-1.67.98-3.05.88h-2.27c-1.12,0-1.68-.53-1.68-1.6Zm4.96-27.58v-1.25c0-.78-.43-1.2-1.29-1.25h-6.6c-.81,0-1.21.4-1.21,1.21v1.29h9.1Zm-7.89,5.08h7.89v-2.66h-9.1v1.41c0,.78.4,1.2,1.21,1.25Z"/>
    <path d="m1494.49,203.89c0-.55.49-1.12,1.48-1.72,2.16-1.38,3.84-2.96,5.04-4.73-1.25-.99-2.23-1.78-2.93-2.36s-1.24-1.09-1.6-1.5c-.34-.36-.51-.87-.51-1.52,0-.44.08-1.02.23-1.72.52-2.06,1.03-4.82,1.52-8.28h-1.84c-1.02,0-1.52-.51-1.52-1.52s.6-1.52,1.8-1.52h2.03l.7-6.52c.05-.49.22-.88.51-1.15.29-.27.65-.41,1.09-.41,1.02,0,1.52.52,1.52,1.56l-.78,6.41h3.4c1.95,0,2.93.98,2.93,2.93s-.18,4.18-.55,6.76c-.44,3.2-1.21,5.95-2.3,8.24,2.45,2.21,3.67,3.72,3.67,4.53,0,1.12-.56,1.68-1.68,1.68-.52,0-1.37-.75-2.54-2.27l-1.09-1.25c-1.2,1.72-2.49,3.15-3.87,4.3-1.41,1.17-2.5,1.76-3.28,1.76-.96,0-1.45-.56-1.45-1.68Zm4.53-12.38c0,.31.1.57.31.78.65.6,1.12,1,1.41,1.21l1.68,1.37c1.15-2.76,1.85-5.94,2.11-9.53l.16-2.38c.05-.7-.37-1.05-1.25-1.05h-2.7c-.39,2.71-.77,4.92-1.13,6.64l-.55,2.5c-.03.1-.04.26-.04.47Zm12.38-8.05c1.02-2.86,1.93-6.08,2.73-9.65.31-1.41.6-2.24.86-2.5.29-.29.68-.43,1.17-.43,1.22,0,1.84.48,1.84,1.45,0,.34-.22,1.24-.66,2.7l-2.81,8.2,1.02-.08c4.17-.42,7.13-.73,8.91-.94l-2.07-3.36c-.05-.1-.18-.31-.39-.62-.21-.31-.31-.57-.31-.78,0-.91.49-1.37,1.48-1.37.75,0,2.08,1.43,3.98,4.3,1.02,1.51,1.76,2.68,2.23,3.52.47.83.7,1.41.7,1.72,0,1.07-.56,1.6-1.68,1.6-.68,0-1.35-.59-2.03-1.76l-.35-.7c-6.77.83-12.2,1.48-16.29,1.95-.55.05-.96-.07-1.25-.37-.29-.3-.43-.72-.43-1.27,0-1.02,1.12-1.55,3.36-1.6Zm-1.41,9.8c0-1.38.3-2.38.9-3.01.6-.62,1.56-.88,2.89-.78h10.27c2.73-.18,4,1.08,3.79,3.79v8.12c.18,2.71-1.08,3.97-3.79,3.79h-10.27c-2.68.18-3.95-1.08-3.79-3.79v-8.12Zm3.61,8.5c.27.27.7.41,1.27.41h8.09c1.12,0,1.68-.56,1.68-1.68v-6.33c0-1.12-.56-1.68-1.68-1.68h-8.09c-1.15,0-1.71.56-1.68,1.68v6.33c0,.57.14,1,.41,1.27Z"/>
    <path d="m1535.7,186.71c2.66-4.32,4.78-8.96,6.37-13.91.21-.65.46-1.13.74-1.45.29-.31.62-.47,1.02-.47,1.22,0,1.84.5,1.84,1.48,0,.52-.28,1.48-.84,2.87-.56,1.39-1.31,2.98-2.25,4.75v24.61c0,1.25-.52,1.88-1.56,1.88s-1.52-.62-1.52-1.88v-18.52l-.08.23-.31.55c-1.64,2.87-2.73,4.3-3.28,4.3-.94,0-1.41-.59-1.41-1.76,0-.39.43-1.29,1.29-2.7Zm8.36,16.29c0-1.04.57-1.56,1.72-1.56h12.93c.7-2.86,1.27-5.27,1.7-7.23s.81-3.91,1.15-5.86c.05-.21.1-.56.16-1.05.29-1.64.48-2.6.59-2.89.21-.57.69-.86,1.45-.86.57,0,1.01.16,1.31.47.3.31.42.73.37,1.25l-.16.9c-.78,4.53-1.94,9.43-3.48,14.69l-.2.59h6.6c1.17,0,1.76.52,1.76,1.56s-.59,1.56-1.76,1.56h-22.42c-1.15,0-1.72-.52-1.72-1.56Zm2.38-24.77h8.48v-5c0-1.41.55-2.11,1.64-2.11s1.64.7,1.64,2.11v5h9.34c1.17,0,1.76.51,1.76,1.52s-.59,1.56-1.76,1.56h-21.09c-1.15,0-1.72-.52-1.72-1.56s.57-1.52,1.72-1.52Zm1.56,6.31c.26-.27.65-.41,1.17-.41.7,0,1.18.38,1.45,1.13.44,1.3.85,2.76,1.21,4.38l1.45,6.76c.13.6.2,1,.2,1.21,0,1.07-.56,1.6-1.68,1.6-.78,0-1.29-.4-1.52-1.21l-2.66-12.34c0-.47.13-.84.39-1.11Z"/>
    <path d="m1575.89,182.68h15.23v-1.91h-11.64c-1.15,0-1.97-.25-2.48-.74-.51-.49-.74-1.28-.68-2.34v-2.19c0-1.12.25-1.94.74-2.46.49-.52,1.3-.75,2.42-.7h25.51c1.12,0,1.93.25,2.42.76.49.51.72,1.31.66,2.4v2.19c0,1.09-.25,1.89-.74,2.4-.5.51-1.28.74-2.34.68h-10.66v1.91h13.83c.96,0,1.45.42,1.45,1.25s-.48,1.25-1.45,1.25h-13.83v1.91h8.36c1.17,0,2.02.26,2.54.78.52.52.75,1.34.7,2.46v7.34c0,1.15-.26,1.99-.78,2.52-.52.53-1.34.78-2.46.72h-16.8c-1.17,0-2.03-.26-2.56-.78-.53-.52-.78-1.34-.72-2.46v-7.34c0-1.17.26-2.02.78-2.54s1.35-.75,2.5-.7h5.23v-1.91h-15.23c-.96,0-1.45-.42-1.45-1.25s.48-1.25,1.45-1.25Zm1.09,21.7c-.57-.56-.82-1.45-.74-2.68v-10.9c0-1.25.53-1.88,1.6-1.88s1.64.62,1.64,1.88v10.47c0,.89.47,1.35,1.41,1.41h27.77c.88,0,1.33.43,1.33,1.29s-.44,1.25-1.33,1.25h-28.91c-1.28,0-2.2-.28-2.77-.84Zm3.32-26.04h5.66v-3.48h-5.66c-.73,0-1.12.39-1.17,1.17v1.13c0,.73.39,1.12,1.17,1.17Zm22.5,12.7v-.55c0-.78-.39-1.18-1.17-1.21h-14.8c-.39,0-.68.1-.88.31-.2.21-.29.51-.29.9v.55h17.15Zm0,3.83v-1.76h-17.15v1.76h17.15Zm-15.98,3.83h14.8c.75,0,1.15-.39,1.17-1.17v-.59h-17.15v.59c0,.73.39,1.12,1.17,1.17Zm8.48-20.35v-3.48h-6.52v3.48h6.52Zm8.59,0c.75,0,1.16-.39,1.21-1.17v-1.13c0-.75-.4-1.15-1.21-1.17h-5.78v3.48h5.78Z"/>
  </g>
  <g>
    <path d="m1117.01,160.85c5.55-2.13,10.22-5.31,14.02-9.53h-7.34c-1.25,0-1.88-.51-1.88-1.52s.62-1.52,1.88-1.52h8.32c.75,0,1.39.1,1.89.31.51.21.97.57,1.39,1.09,1.85,2.37,3.9,4.36,6.15,5.98,2.25,1.62,4.99,2.97,8.22,4.06.99.31,1.48.86,1.48,1.64,0,.1-.03.29-.08.55-.21.89-.72,1.33-1.52,1.33-.21,0-.46-.04-.74-.12-3.12-1.02-5.95-2.45-8.48-4.32-2.53-1.86-4.65-3.98-6.37-6.35-1.88,2.34-4.19,4.53-6.95,6.54-2.76,2.02-5.68,3.63-8.75,4.82-.39.13-.72.2-.98.2-.44,0-.81-.14-1.09-.41-.29-.27-.43-.67-.43-1.19,0-.7.42-1.22,1.25-1.56Zm.27,20c0-1.02.64-1.52,1.91-1.52h12.54v-6.17h-8.48c-1.28,0-1.91-.51-1.91-1.52s.64-1.52,1.91-1.52h8.48v-5.35h-8.36c-1.2,0-1.8-.47-1.8-1.41,0-.99.6-1.48,1.8-1.48h20.27c1.2,0,1.8.5,1.8,1.48,0,.5-.14.85-.43,1.07-.29.22-.74.33-1.37.33h-8.75v5.35h8.79c1.25,0,1.88.51,1.88,1.52s-.62,1.52-1.88,1.52h-8.79v6.17h12.81c1.28,0,1.91.52,1.91,1.56s-.64,1.48-1.91,1.48h-28.52c-1.28,0-1.91-.51-1.91-1.52Z"/>
    <path d="m1157.36,162.57h3.28c-.18-1.98-.48-4.24-.9-6.8h-1.84c-.96,0-1.45-.47-1.45-1.41s.48-1.41,1.45-1.41h6.8v-2.77c0-1.33.53-1.99,1.6-1.99s1.64.66,1.64,1.99v2.77h6.76c.96,0,1.45.47,1.45,1.41s-.48,1.41-1.45,1.41h-2.11l-.08.51c-.05.26-.1.65-.16,1.17-.31,2.16-.6,3.87-.86,5.12h3.36c1.15,0,1.72.47,1.72,1.41s-.57,1.41-1.72,1.41h-17.5c-1.15,0-1.72-.47-1.72-1.41s.57-1.41,1.72-1.41Zm.78,9.45c-.21-2.47.95-3.65,3.48-3.52h9.41c1.28,0,2.21.28,2.79.84.59.56.83,1.45.72,2.68v6.45c0,1.25-.28,2.16-.84,2.73-.56.57-1.45.82-2.68.74h-9.41c-1.25,0-2.16-.27-2.73-.82-.57-.55-.82-1.43-.74-2.66v-6.45Zm4.53,7.11h7.27c.52,0,.9-.12,1.13-.37.23-.25.35-.63.35-1.15v-4.77c0-1.02-.5-1.52-1.48-1.52h-7.27c-1.02,0-1.52.51-1.52,1.52v4.77c0,1.02.51,1.52,1.52,1.52Zm0-22.89c.47,2.68.75,4.79.86,6.33h5.12c.44-2.32.77-4.58.98-6.8h-7.03l.08.47Zm14.96,25.59v-28.36c0-1.25.27-2.15.82-2.71.55-.56,1.43-.8,2.66-.72h6.33c2.29,0,3.44.79,3.44,2.38,0,.42-.42,1.6-1.25,3.55-1.02,2.34-1.76,3.93-2.23,4.77-.68,1.2-1.02,2.01-1.02,2.42,0,.39.36.87,1.09,1.45.34.26.69.64,1.05,1.15.36.51.81,1.21,1.33,2.09.94,1.56,1.41,3.19,1.41,4.88,0,4.45-2.34,6.68-7.03,6.68-1.2,0-1.8-.6-1.8-1.8,0-.91.72-1.46,2.15-1.64.52-.08.98-.16,1.39-.23.4-.08.7-.18.88-.31.78-.55,1.17-1.55,1.17-3.01,0-1.56-.47-3.06-1.41-4.49-.26-.39-1.07-1.29-2.42-2.7-.57-.57-.86-1.13-.86-1.68,0-.42.3-1.22.9-2.42.7-1.41,1.35-2.83,1.95-4.26.7-1.69,1.05-2.79,1.05-3.28,0-.42-.31-.62-.94-.62h-3.91c-1.07,0-1.6.52-1.6,1.56v27.3c0,1.28-.52,1.91-1.56,1.91s-1.6-.64-1.6-1.91Z"/>
    <path d="m1197.4,178.63c.1-.05.47-.21,1.09-.47.62-.26,1.34-.64,2.15-1.13v-7.19c0-.36-.1-.65-.31-.86-.21-.21-.5-.31-.86-.31h-2.27c-.55,0-.94-.12-1.19-.35-.25-.23-.37-.61-.37-1.13,0-.49.12-.86.37-1.09.25-.23.64-.35,1.19-.35h3.36c1.15,0,1.97.25,2.48.74.51.5.74,1.26.68,2.3v7.89l1.05,1.02c1.82,1.38,5.52,2.07,11.09,2.07,2.24,0,4.2-.01,5.88-.04,1.68-.03,3.08-.05,4.2-.08,1.51-.05,2.62-.08,3.32-.08h.47c1.02,0,1.52.49,1.52,1.48,0,1.09-.77,1.64-2.3,1.64-5.37,0-9.39-.01-12.07-.04-4.79-.05-8.1-.31-9.92-.78-.91-.26-1.72-.61-2.42-1.05-.7-.44-1.41-.99-2.11-1.64-1.2,1.07-2.27,1.88-3.2,2.44-.94.56-1.62.84-2.03.84-.52,0-.91-.14-1.17-.43-.26-.29-.39-.76-.39-1.41,0-.83.59-1.5,1.76-1.99Zm-1.25-21.84c.23-.23.6-.35,1.09-.35.42,0,1.51.37,3.28,1.09,1.67.68,2.5,1.42,2.5,2.23,0,1.04-.51,1.56-1.52,1.56-.16,0-.6-.17-1.33-.51l-3.2-1.41c-.78-.34-1.17-.83-1.17-1.48,0-.52.12-.9.35-1.13Zm2.66-7.81c.36,0,1.41.38,3.12,1.13.78.34,1.38.72,1.8,1.13.42.42.62.82.62,1.21,0,1.07-.5,1.6-1.48,1.6-.26,0-.79-.22-1.6-.66-1.3-.68-2.16-1.12-2.58-1.33-.89-.42-1.33-.95-1.33-1.6,0-.99.48-1.48,1.45-1.48Zm9.75,26.66c-.56-.56-.8-1.46-.72-2.71v-14.69c-1.04,1.35-1.75,2.25-2.13,2.68-.38.43-.68.64-.92.64-.89,0-1.33-.52-1.33-1.56,0-.34.44-1.05,1.33-2.15,1.95-2.34,3.53-5.03,4.73-8.05.42-1.07.96-1.6,1.64-1.6.55,0,.94.11,1.19.33.25.22.37.55.37,1,0,.68-.6,2.03-1.8,4.06h7.07l1.64-3.91c.13-.34.33-.59.61-.76.27-.17.59-.25.96-.25.52,0,.9.12,1.13.35s.35.61.35,1.13-.57,1.67-1.72,3.44h7.38c1.02,0,1.52.47,1.52,1.41,0,.47-.12.81-.35,1.04-.23.22-.62.33-1.17.33h-7.03v3.95h6.52c.96,0,1.45.44,1.45,1.33,0,.94-.48,1.41-1.45,1.41h-6.52v4.02h6.52c.96,0,1.45.44,1.45,1.33s-.48,1.33-1.45,1.33h-6.52v4.02h7.66c.99,0,1.48.46,1.48,1.37s-.5,1.37-1.48,1.37h-17.7c-1.25,0-2.16-.28-2.71-.84Zm9.75-15.33v-3.95h-6.48c-.31,0-.55.08-.7.25-.16.17-.23.41-.23.72v2.97h7.42Zm0,6.76v-4.02h-7.42v4.02h7.42Zm-7.03,6.27c.26.27.62.41,1.09.41h5.94v-4.02h-7.42v2.5c0,.47.13.84.39,1.11Z"/>
    <path d="m1235.8,181.17c0-.42.18-.82.55-1.21l2.54-1.88c6.56-4.84,11.16-11.98,13.79-21.41l-.08-1.76c-.05-.68-.2-1.18-.45-1.52-.25-.34-.64-.52-1.19-.55h-5.12c-1.3,0-1.95-.55-1.95-1.64s.65-1.6,1.95-1.6h6.41c1.15,0,1.99.33,2.52.98.53.65.81,1.68.84,3.09.08,5.5,1.37,10.34,3.87,14.53,2.76,4.64,6.21,8.26,10.35,10.86.86.55,1.29,1.17,1.29,1.88,0,1.22-.55,1.84-1.64,1.84-.99,0-2.93-1.3-5.82-3.91-4.56-4.17-7.83-9.61-9.8-16.33-.7,1.62-1.52,3.31-2.44,5.08-.92,1.77-1.62,3.03-2.09,3.79-1.62,2.6-3.75,5.17-6.41,7.7-2.68,2.55-4.56,3.83-5.62,3.83-.99,0-1.48-.59-1.48-1.76Z"/>
    <path d="m1096.15,216.47c.29-.21,1.12-.46,2.5-.74l2.15-.59v-8.48h-3.67c-.52,0-.91-.12-1.15-.37-.25-.25-.37-.63-.37-1.15s.12-.9.37-1.13c.25-.23.63-.35,1.15-.35h3.67v-5.94c0-1.07.49-1.6,1.48-1.6,1.04,0,1.56.53,1.56,1.6v5.94h2.27c.99,0,1.48.5,1.48,1.48,0,.52-.12.91-.35,1.15-.23.25-.61.37-1.13.37h-2.27v7.58l.82-.23c.99-.29,1.58-.43,1.76-.43.39,0,.68.11.86.33.18.22.27.58.27,1.07,0,.68-.42,1.17-1.25,1.48l-2.46.98v10.23c.21,2.68-1.08,3.96-3.87,3.83h-2.03c-1.02,0-1.52-.53-1.52-1.6s.51-1.64,1.52-1.64h1.41c.91,0,1.39-.48,1.45-1.45v-8.44l-1.29.39c-1.43.42-2.29.62-2.58.62-.89,0-1.33-.56-1.33-1.68,0-.55.18-.96.55-1.25Zm13.26,13.36c-.53-.55-.8-1.34-.8-2.38v-12.58c0-.81.16-1.48.47-2.03.21-.39,1-.88,2.38-1.48.44-.21,1.22-.59,2.34-1.13.62-.31,1.11-.47,1.45-.47.88,0,1.33.51,1.33,1.52,0,.44-.3.87-.9,1.27-.6.4-1.5.83-2.7,1.27-.86.31-1.3.81-1.33,1.48v4.02h3.44c1.07,0,1.6.47,1.6,1.41s-.53,1.37-1.6,1.37h-3.44v4.38c0,.7.38,1.08,1.13,1.13h4.92v-20.23h-7.89c-1.09,0-1.64-.48-1.64-1.45s.55-1.48,1.64-1.48h7.89v-3.95c-3.44.34-6.07.51-7.89.51-1.09,0-1.64-.53-1.64-1.6,0-.99.96-1.48,2.89-1.48,5.96,0,10.94-.49,14.92-1.48l1.56-.2c.6-.08,1.06.04,1.39.35.33.31.49.77.49,1.37,0,.7-.42,1.16-1.25,1.37-.5.16-3,.44-7.5.86v4.26h8.98c1.09,0,1.64.5,1.64,1.48s-.55,1.45-1.64,1.45h-8.98v20.23h5.04c.75,0,1.15-.39,1.17-1.17v-4.34h-3.67c-.5,0-.88-.12-1.15-.35s-.41-.57-.41-1.02c0-.94.52-1.41,1.56-1.41h3.67v-4.14c0-.75-.39-1.15-1.17-1.17h-2.5c-1.07,0-1.6-.47-1.6-1.41s.55-1.45,1.64-1.45h3.4c2.29,0,3.38,1.08,3.28,3.24v12.97c0,1.15-.26,1.99-.78,2.52-.52.53-1.35.79-2.5.76h-14.88c-1.04,0-1.83-.27-2.36-.82Z"/>
    <path d="m1135.8,229.17c0-.42.18-.82.55-1.21l2.54-1.88c6.56-4.84,11.16-11.98,13.79-21.41l-.08-1.76c-.05-.68-.2-1.18-.45-1.52-.25-.34-.64-.52-1.19-.55h-5.12c-1.3,0-1.95-.55-1.95-1.64s.65-1.6,1.95-1.6h6.41c1.15,0,1.99.33,2.52.98.53.65.81,1.68.84,3.09.08,5.5,1.37,10.34,3.87,14.53,2.76,4.64,6.21,8.26,10.35,10.86.86.55,1.29,1.17,1.29,1.88,0,1.22-.55,1.84-1.64,1.84-.99,0-2.93-1.3-5.82-3.91-4.56-4.17-7.83-9.61-9.8-16.33-.7,1.62-1.52,3.31-2.44,5.08-.92,1.77-1.62,3.03-2.09,3.79-1.62,2.6-3.75,5.17-6.41,7.7-2.68,2.55-4.56,3.83-5.62,3.83-.99,0-1.48-.59-1.48-1.76Z"/>
    <path d="m1177.75,198.66h31.41c1.3,0,1.95.52,1.95,1.56s-.65,1.56-1.95,1.56h-15.31v27.97c0,1.3-.59,1.95-1.76,1.95-.57,0-1-.16-1.27-.47s-.41-.81-.41-1.48v-27.97h-12.66c-.68,0-1.17-.12-1.48-.37-.31-.25-.47-.64-.47-1.19,0-1.04.65-1.56,1.95-1.56Zm17.7,13.09c-.52-.39-.78-.82-.78-1.29,0-.23.09-.51.27-.82.26-.44.65-.66,1.17-.66.36,0,.69.09.98.27,1.41.89,2.9,1.93,4.49,3.12,1.59,1.2,2.93,2.29,4.02,3.28.47.44.7.91.7,1.41,0,.39-.16.77-.47,1.13-.31.37-.7.55-1.17.55-.44,0-.89-.18-1.33-.55-2.6-2.21-5.23-4.36-7.89-6.45Z"/>
    <path d="m1215.84,213.54c0-1.2.73-1.8,2.19-1.8h30.9c1.46,0,2.19.61,2.19,1.84s-.73,1.76-2.19,1.76h-30.9c-1.46,0-2.19-.6-2.19-1.8Z"/>
    <path d="m1256.38,213.03c2.58-4.17,4.61-9.13,6.09-14.88.36-1.33.99-1.99,1.88-1.99,1.02,0,1.52.5,1.52,1.48,0,.34-.18,1.02-.55,2.03-.42,1.22-1.09,3.06-2.03,5.51v24.77c0,1.25-.52,1.88-1.56,1.88s-1.56-.62-1.56-1.88v-17.85l-.2.39c-.73,1.41-1.33,2.44-1.82,3.09-.48.65-.89.98-1.23.98-.89,0-1.33-.51-1.33-1.52,0-.44.26-1.11.78-1.99Zm11.04,16.7c-.56-.53-.8-1.37-.72-2.52v-26.02c0-1.22.27-2.11.8-2.66.53-.55,1.4-.78,2.6-.7h16.33c1.22,0,2.12.27,2.68.8.56.53.8,1.4.72,2.6v25.9c0,1.22-.27,2.12-.82,2.68-.55.56-1.41.8-2.58.72h-16.33c-1.22,0-2.12-.27-2.68-.8Zm3.85-2.05h13.91c.96,0,1.47-.51,1.52-1.52v-23.91c0-.99-.51-1.5-1.52-1.52h-13.91c-.96,0-1.45.5-1.45,1.48v23.98c0,.94.48,1.43,1.45,1.48Zm.98-21.02h4.49v-3.44c0-.99.44-1.48,1.33-1.48s1.37.5,1.37,1.48v3.44h4.65c1.02,0,1.52.46,1.52,1.37s-.51,1.33-1.52,1.33h-4.65v4.22h1.6c.96,0,1.67.23,2.13.7.46.47.68,1.21.68,2.23v5.35c0,1.93-.91,2.89-2.73,2.89h-5.9c-1.9,0-2.85-.99-2.85-2.97v-5.35c0-1.9.95-2.85,2.85-2.85h1.52v-4.22h-4.49c-1.02,0-1.52-.46-1.52-1.37s.51-1.33,1.52-1.33Zm3.95,15.43h3.95c.7,0,1.05-.36,1.05-1.09v-3.67c0-.36-.08-.63-.25-.8-.17-.17-.44-.27-.8-.29h-3.95c-.7,0-1.07.37-1.09,1.09v3.67c0,.68.36,1.04,1.09,1.09Z"/>
  </g>
  <g>
    <path d="m180.9,179.13l6.88-.47v-2.77h-6.41c-.96,0-1.45-.44-1.45-1.33s.48-1.33,1.45-1.33h6.41v-2.11h-4.3c-1.02,0-1.78-.24-2.3-.72-.52-.48-.78-1.18-.78-2.09v-5.94c0-.94.25-1.65.76-2.15.51-.49,1.26-.74,2.25-.74h4.38v-1.99h-7.58c-.96,0-1.45-.46-1.45-1.37s.48-1.33,1.45-1.33h7.58v-2.23l-1.05.12-5.47.39c-1.07.08-1.6-.4-1.6-1.45,0-.68.31-1.12.94-1.33h.04l1.91-.08c5.68-.23,9.9-.79,12.66-1.68l.74-.08c1.09-.1,1.64.43,1.64,1.6,0,.73-.69,1.24-2.07,1.52-.37.08-1.55.26-3.55.55l-1.45.2v2.46h6.76c.99,0,1.48.46,1.48,1.37,0,.44-.12.78-.35,1-.23.22-.61.33-1.13.33h-6.76v1.99h4.57c2,0,3.01.94,3.01,2.81v5.94c0,1.93-1.03,2.89-3.09,2.89h-4.49v2.11h6.33c.55,0,.93.1,1.15.31.22.21.33.55.33,1.02s-.11.81-.33,1.02c-.22.21-.61.31-1.15.31h-6.33v2.62l5.9-.59c.36-.03.66.07.88.29.22.22.33.55.33,1,0,.73-.37,1.16-1.09,1.29l-15,1.72-1.21.08c-1.07.08-1.6-.44-1.6-1.56,0-.99.73-1.52,2.19-1.6Zm6.88-15.04v-2.19h-3.59c-.62,0-.94.33-.94.98v1.21h4.53Zm-3.59,4.61h3.59v-2.27h-4.53v1.33c0,.62.31.94.94.94Zm11.05-4.61v-1.21c0-.34-.07-.59-.21-.74-.14-.16-.38-.23-.72-.23h-3.79v2.19h4.73Zm-.94,4.61c.62,0,.94-.31.94-.94v-1.33h-4.73v2.27h3.79Zm9.77,12.97c0-.65.25-1.11.74-1.37.23-.13.92-.23,2.07-.31,1.54-.08,2.38-1.26,2.54-3.55.31-4.11.53-7.62.66-10.51l.16-4.45c.03-.96-.46-1.45-1.45-1.45h-3.12c-.21,4.82-.62,8.69-1.25,11.6-.7,3.26-1.67,5.91-2.89,7.97-1.35,2.29-2.49,3.44-3.4,3.44-.96,0-1.45-.51-1.45-1.52,0-.21.07-.42.21-.64.14-.22.37-.51.68-.88,3.31-3.72,5.05-10.38,5.23-19.96h-2.62c-1.15,0-1.72-.51-1.72-1.52,0-.52.14-.9.41-1.15.27-.25.71-.37,1.31-.37h2.7l.04-3.63c0-1.56.01-2.75.04-3.55.03-1.07.51-1.6,1.45-1.6s1.45.55,1.45,1.64l-.04,3.52-.04,3.63h3.87c2.4,0,3.55,1,3.48,3.01l-.31,7.97c-.23,5.55-.57,9.41-1.02,11.6-.26,1.22-.9,2.16-1.91,2.81-1.02.65-2.38.98-4.1.98-1.15,0-1.72-.56-1.72-1.68Z"/>
    <path d="m221.92,158.82c0-.68.42-1.02,1.25-1.02h10.55v-1.72h-14.45c-.89,0-1.33-.35-1.33-1.05s.44-1.05,1.33-1.05h14.45v-1.64h-10.55c-.89,0-1.33-.35-1.33-1.05s.44-1.05,1.33-1.05h10.55v-.7c0-.99.53-1.48,1.6-1.48s1.6.5,1.6,1.48v.7h9.34c1.9,0,2.85.83,2.85,2.5v1.25h3.2c.88,0,1.33.35,1.33,1.05s-.44,1.05-1.33,1.05h-3.2v1.13c0,1.72-.95,2.58-2.85,2.58h-9.34v1.64h12.5c.83,0,1.25.34,1.25,1.02s-.42.98-1.25.98h-12.5v1.76h15.39c.88,0,1.33.35,1.33,1.05s-.44,1.05-1.33,1.05h-33.05c-.44,0-.77-.08-.98-.25-.21-.17-.31-.44-.31-.8,0-.7.43-1.05,1.29-1.05h14.45v-1.76h-11.64c-.83,0-1.25-.33-1.25-.98s.42-1.02,1.25-1.02h11.64v-1.64h-10.55c-.83,0-1.25-.33-1.25-.98Zm-2.62,21.68h32.97c.91,0,1.37.36,1.37,1.09s-.46,1.09-1.37,1.09h-32.97c-.91,0-1.37-.37-1.37-1.09s.46-1.09,1.37-1.09Zm2.23-8.71c0-1.95.99-2.93,2.97-2.93h22.62c1.93,0,2.89.98,2.89,2.93v4.14c0,1.95-.96,2.93-2.89,2.93h-22.62c-1.98,0-2.97-.98-2.97-2.93v-4.14Zm12.3,1.02v-1.88h-8.05c-.68,0-1.04.35-1.09,1.05v.82h9.14Zm-8.05,3.98h8.05v-2.03h-9.14v.98c0,.65.36,1,1.09,1.05Zm20.23-22.81v-.74c0-.55-.3-.85-.9-.9h-8.2v1.64h9.1Zm-.9,3.83c.6,0,.9-.29.9-.86v-.86h-9.1v1.72h8.2Zm1.72,15v-.82c0-.65-.35-1-1.05-1.05h-8.83v1.88h9.88Zm-1.05,3.98c.65,0,1-.35,1.05-1.05v-.98h-9.88v2.03h8.83Z"/>
    <path d="m263.79,181.99v-14.73l-4.53.47c-.47.03-.82-.1-1.05-.37s-.35-.66-.35-1.15c0-1.12.96-1.64,2.89-1.56l.31.04,2.66-3.87c-1.25-1.12-2.81-2.29-4.69-3.52-.62-.39-.94-.85-.94-1.37,0-.96.48-1.45,1.45-1.45.29,0,.75.21,1.41.62,1.2-2,2.13-3.87,2.81-5.59.39-.96.96-1.45,1.72-1.45,1.09,0,1.64.5,1.64,1.48,0,.91-1.35,3.27-4.06,7.07l-.04.04,2.3,1.76c1.07-1.67,1.88-3.03,2.42-4.1.44-.83.98-1.25,1.6-1.25,1.04,0,1.56.48,1.56,1.45,0,.37-.83,1.78-2.5,4.26-1.67,2.5-3.09,4.44-4.26,5.82l4.53-.23h.16l-.55-2.03c0-.78.4-1.17,1.21-1.17.7,0,1.38.91,2.03,2.73.65,1.85.98,2.97.98,3.36,0,.89-.46,1.33-1.37,1.33-.68,0-1.21-.66-1.6-1.99l-.7.08-1.99.31v15c0,1.15-.51,1.72-1.52,1.72s-1.52-.57-1.52-1.72Zm-5.59-4.69c.65-1.85,1.05-3.96,1.21-6.33.08-1.09.53-1.64,1.37-1.64.47,0,.81.12,1.04.35.22.23.33.6.33,1.09,0,1.82-.31,4.02-.94,6.6-.21.94-.47,1.63-.78,2.07-.31.44-.69.66-1.13.66-.5,0-.86-.11-1.09-.33s-.35-.57-.35-1.04c0-.31.12-.79.35-1.45Zm10.47-7.7c.23-.18.56-.27.98-.27.73,0,1.22.53,1.48,1.6.86,3.46,1.29,5.79,1.29,6.99,0,.91-.48,1.37-1.45,1.37-.47,0-.82-.18-1.05-.55-.23-.36-.4-.94-.51-1.72-.34-2.86-.61-4.62-.82-5.27l-.2-1.33c-.05-.36.04-.64.27-.82Zm5.08-15.82h7.23v-3.71c0-.62.14-1.09.41-1.41s.66-.47,1.15-.47.88.16,1.15.47.41.78.41,1.41v3.71h7.66c1.2,0,1.8.48,1.8,1.45s-.6,1.41-1.8,1.41h-7.66v5.59h6.88c1.17,0,1.76.47,1.76,1.41s-.59,1.45-1.76,1.45h-16.17c-1.15,0-1.72-.48-1.72-1.45s.57-1.41,1.72-1.41h6.17v-5.59h-7.23c-1.15,0-1.72-.48-1.72-1.45s.57-1.41,1.72-1.41Zm.31,18.44c0-1.22.27-2.12.82-2.68.55-.56,1.42-.81,2.62-.76h10.59c1.25,0,2.15.27,2.71.8.56.53.8,1.41.72,2.64v7.03c0,1.25-.27,2.15-.8,2.71-.53.56-1.41.8-2.64.72h-10.59c-1.22,0-2.12-.27-2.68-.82-.56-.55-.81-1.42-.76-2.62v-7.03Zm4.45,7.66h8.52c.47,0,.83-.13,1.07-.39.25-.26.37-.61.37-1.05v-5.35c0-.47-.13-.83-.39-1.07-.26-.25-.61-.37-1.05-.37h-8.52c-.96,0-1.45.48-1.45,1.45v5.35c0,.96.48,1.45,1.45,1.45Z"/>
    <path d="m314.1,181.83v-10.23c-2.24,2.4-4.97,4.66-8.2,6.8-3.26,2.16-5.38,3.24-6.37,3.24s-1.52-.56-1.52-1.68c0-.62.61-1.2,1.84-1.72,5.62-2.42,9.96-5.27,13.01-8.55h-8.24c-1.2,0-2.07-.25-2.62-.76s-.79-1.35-.74-2.52v-4.61c0-1.22.27-2.11.8-2.66.53-.55,1.39-.78,2.56-.7h9.49v-3.36h-13.98c-1.25,0-1.88-.51-1.88-1.52s.62-1.56,1.88-1.56h13.98v-2.46c0-.88.53-1.33,1.6-1.33s1.56.44,1.56,1.33v2.46h14.14c1.28,0,1.91.52,1.91,1.56s-.64,1.52-1.91,1.52h-14.14v3.36h9.65c1.22,0,2.11.27,2.66.8.55.53.78,1.39.7,2.56v4.53c0,1.22-.26,2.11-.78,2.66-.52.55-1.38.78-2.58.7h-8.44c3.31,3.85,7.63,6.6,12.97,8.24,1.41.44,2.11,1.04,2.11,1.8,0,1.15-.56,1.72-1.68,1.72-.89,0-2.41-.6-4.57-1.8-2.14-1.22-4.01-2.47-5.62-3.75-1.62-1.28-3.09-2.7-4.41-4.26v10.2c0,1.28-.52,1.91-1.56,1.91s-1.6-.64-1.6-1.91Zm-8.24-14.8h8.24v-5.9h-8.24c-.89,0-1.35.46-1.41,1.37v3.16c0,.86.47,1.32,1.41,1.37Zm19.88,0c.86,0,1.31-.46,1.37-1.37v-3.16c0-.86-.46-1.31-1.37-1.37h-8.48v5.9h8.48Z"/>
    <path d="m180.2,230.14v-15.16h-.98c-.94,0-1.41-.51-1.41-1.52s.47-1.52,1.41-1.52h.98v-11.41c0-2.08,1.04-3.12,3.12-3.12h13.05c2.11,0,3.16,1.04,3.16,3.12v11.41h.94c.88,0,1.33.51,1.33,1.52s-.44,1.52-1.33,1.52h-.94v12.77c0,1.25-.25,2.18-.74,2.79-.5.61-1.26.93-2.3.96h-1.52c-.83,0-1.25-.48-1.25-1.45s.42-1.45,1.25-1.45h.9c.52,0,.78-.29.78-.86v-12.77h-2.93v14.02c0,.94-.44,1.41-1.33,1.41s-1.33-.47-1.33-1.41v-14.02h-2.66v13.98c0,.94-.43,1.41-1.29,1.41s-1.33-.47-1.33-1.41v-13.98h-2.73v15.16c0,.96-.48,1.45-1.45,1.45s-1.41-.48-1.41-1.45Zm5.59-18.2v-11.48h-1.72c-.62,0-.96.34-1.02,1.02v10.47h2.73Zm5.27,0v-11.48h-2.66v11.48h2.66Zm5.59,0v-10.47c0-.62-.34-.96-1.02-1.02h-1.91v11.48h2.93Zm5.55-10.9c0-1.02.47-1.52,1.41-1.52.99,0,1.48.51,1.48,1.52v21.41c0,1.02-.5,1.52-1.48,1.52-.94,0-1.41-.51-1.41-1.52v-21.41Zm3.59,27.27h1.52c.99,0,1.51-.52,1.56-1.56v-28.32c0-1.2.52-1.8,1.56-1.8s1.56.6,1.56,1.8v29.34c0,1.35-.31,2.34-.92,2.97-.61.62-1.58.9-2.91.82h-2.38c-1.25,0-1.88-.53-1.88-1.6s.62-1.64,1.88-1.64Z"/>
    <path d="m219.81,201.12c0-1.22.27-2.12.82-2.7.55-.57,1.43-.83,2.66-.78h4.88c2.19,0,3.28.7,3.28,2.11,0,.47-.26,1.36-.78,2.68-.52,1.32-1.26,2.95-2.23,4.9-.65,1.3-.98,2.21-.98,2.73,0,.37.35.99,1.05,1.88.7.91,1.24,1.88,1.6,2.89.34.99.51,2.08.51,3.28,0,3.91-1.86,5.86-5.59,5.86-1.04,0-1.56-.6-1.56-1.8,0-.65.22-1.09.66-1.33.26-.13.91-.26,1.95-.39,1.07-.13,1.6-1.05,1.6-2.77,0-2.03-.6-3.81-1.8-5.35-.81-1.04-1.21-1.84-1.21-2.38,0-.44.55-1.86,1.64-4.26,1.07-2.37,1.6-3.81,1.6-4.34,0-.26-.1-.46-.29-.59-.2-.13-.48-.2-.84-.2h-2.73c-.42,0-.74.11-.96.33s-.35.54-.37.96v28.2c0,1.17-.5,1.76-1.48,1.76s-1.45-.59-1.45-1.76v-28.95Zm8.83,25.31c1.93-1.48,3.49-3.15,4.69-5,.55-.83,1.11-1.25,1.68-1.25.94,0,1.41.42,1.41,1.25,0,.91-.98,2.44-2.93,4.57-1.98,2.19-3.41,3.28-4.3,3.28-.96,0-1.45-.51-1.45-1.52,0-.42.3-.86.9-1.33Zm1.45-18.91c3.75-2.5,6.8-5.92,9.14-10.27.21-.36.46-.66.74-.88.29-.22.59-.33.9-.33.57,0,.98.15,1.23.45.25.3.34.75.29,1.35l-.12.39c2.76,3.88,6.13,6.72,10.12,8.52.88.42,1.33.98,1.33,1.68,0,1.15-.5,1.72-1.48,1.72-.86,0-2.5-.92-4.92-2.77-2.5-1.9-4.65-4.19-6.45-6.88-2.32,3.05-4.41,5.46-6.29,7.23-2.06,1.95-3.52,2.93-4.38,2.93-.94,0-1.41-.49-1.41-1.48,0-.55.43-1.09,1.29-1.64Zm4.96,22.58c0-1.04.49-1.56,1.48-1.56h1.52c.47,0,.83-.14,1.09-.41.26-.27.4-.66.43-1.15v-9.02h-6.76c-1.17,0-1.76-.48-1.76-1.45,0-.91.59-1.37,1.76-1.37h6.76v-4.1h-4.41c-1.15,0-1.72-.47-1.72-1.41s.57-1.37,1.72-1.37h12.15c1.15,0,1.72.46,1.72,1.37s-.57,1.41-1.72,1.41h-4.77v4.1h8.12c1.15,0,1.72.47,1.72,1.41s-.57,1.41-1.72,1.41h-8.12v9.77c0,1.43-.31,2.47-.94,3.11-.62.64-1.63.92-3.01.84h-1.91c-1.09,0-1.64-.52-1.64-1.56Zm11.72-9.84c.23,0,.46.08.68.23.22.16.49.42.8.78l.7.78c.29.34.59.68.9,1.02.42.47,1.18,1.15,2.3,2.03.99.78,1.48,1.42,1.48,1.91,0,1.09-.51,1.64-1.52,1.64-.94,0-2.3-1.05-4.1-3.16-.96-1.15-1.67-2.02-2.11-2.62-.44-.6-.66-1.04-.66-1.33,0-.86.51-1.29,1.52-1.29Z"/>
    <path d="m258.32,229.48c0-.39.21-.74.64-1.05s1.1-.62,2.01-.94c2.71-.91,4.7-2.5,5.98-4.77,1.3-2.32,1.97-5.83,1.99-10.55h-8.48c-1.3,0-1.95-.51-1.95-1.52s.65-1.56,1.95-1.56h30.59c1.25,0,1.88.51,1.88,1.52s-.62,1.56-1.88,1.56h-9.88v13.52c0,.86.34,1.38,1.02,1.56.6.16,1.73.23,3.4.23,2.03,0,3.25-.25,3.67-.74.39-.42.6-1.25.62-2.5.05-1.25.61-1.88,1.68-1.88.57,0,1,.13,1.29.39.29.26.43.69.43,1.29,0,2.34-.43,4.05-1.29,5.12-.96.91-3.32,1.37-7.07,1.37-2.71,0-4.47-.16-5.27-.47-1.07-.42-1.6-1.41-1.6-2.97v-14.92h-5.98l-.04,1.72c-.08,3.54-.68,6.63-1.8,9.26-1.04,2.5-2.66,4.47-4.84,5.9-2.21,1.46-4.02,2.19-5.43,2.19-1.09,0-1.64-.59-1.64-1.76Zm5.94-31.41h23.01c1.28,0,1.91.52,1.91,1.56s-.64,1.52-1.91,1.52h-23.01c-1.3,0-1.95-.51-1.95-1.52s.65-1.56,1.95-1.56Z"/>
    <path d="m300.24,227.72c1.38-.39,3.01-1,4.88-1.84,1.77-.78,2.75-1.17,2.93-1.17.99,0,1.48.53,1.48,1.6,0,.7-1.46,1.68-4.38,2.93-2.87,1.22-4.8,1.84-5.82,1.84-.91,0-1.37-.55-1.37-1.64,0-.73.75-1.3,2.27-1.72Zm13.67,2.38v-6.91l-13.36.7c-.55.03-.97-.1-1.27-.39-.3-.29-.45-.7-.45-1.25,0-1.04.6-1.56,1.8-1.56h10.98l.66-.59-6.91-3.83c-.86-.47-1.29-.94-1.29-1.41,0-.88.47-1.33,1.41-1.33.21,0,.61.13,1.19.39.59.26,1.28.64,2.09,1.13,1.28-1.38,2.15-2.42,2.62-3.12h-11.68c-1.02,0-1.52-.44-1.52-1.33s.51-1.33,1.52-1.33h14.3v-2.7h-11.25c-.99,0-1.48-.43-1.48-1.29s.49-1.29,1.48-1.29h11.25v-2.5h-13.2c-.99,0-1.48-.44-1.48-1.33s.49-1.33,1.48-1.33h13.2v-1.33c0-.91.52-1.37,1.56-1.37s1.56.46,1.56,1.37v1.33h13.63c1.02,0,1.52.44,1.52,1.33s-.51,1.33-1.52,1.33h-13.63v2.5h11.68c.99,0,1.48.43,1.48,1.29,0,.44-.12.77-.35.98-.23.21-.61.31-1.13.31h-11.68v2.7h14.73c1.04,0,1.56.44,1.56,1.33s-.52,1.33-1.56,1.33h-16.6l-4.26,4.41,3.4,1.95c1.61-1.46,3.22-2.98,4.8-4.57.6-.6,1.15-.9,1.64-.9,1.02,0,1.52.46,1.52,1.37,0,.5-.85,1.41-2.54,2.73l-4.65,3.67.35-.04h.47l10.66-.39-1.84-1.84c-.39-.39-.59-.77-.59-1.13,0-.42.12-.73.35-.94.23-.21.57-.31,1.02-.31.47,0,1.82,1.04,4.06,3.12,1.04.96,1.84,1.8,2.38,2.5s.82,1.2.82,1.48c0,1.02-.52,1.52-1.56,1.52-.5,0-1.03-.33-1.6-.98l-1.02-1.21-11.45.62v7.07c0,1.17-.56,1.76-1.68,1.76s-1.64-.59-1.64-1.76Zm9.57-5.51c.34,0,.92.21,1.76.62,2.53,1.25,4.65,2.06,6.37,2.42.65.13,1.15.34,1.48.62.34.29.51.61.51.98,0,1.17-.48,1.76-1.45,1.76-1.02,0-3-.66-5.94-1.99-2.89-1.33-4.34-2.3-4.34-2.93,0-.99.53-1.48,1.6-1.48Z"/>
  </g>
  <g>
    <path d="m1308.08,33.56c-.33-.33-.49-.72-.49-1.19s.16-.87.49-1.21c.33-.34.72-.51,1.19-.51h4.61V11.55c0-.18-.05-.31-.14-.37-.09-.06-.23-.04-.41.06l-3.4,1.64c-.34.16-.64.23-.9.23-.5,0-.91-.16-1.23-.49-.33-.33-.49-.74-.49-1.23,0-.75.35-1.3,1.05-1.64l5.31-2.77c.29-.18.65-.27,1.09-.27h.82c.52,0,.97.19,1.35.57.38.38.57.83.57,1.35v22.03h3.83c.47,0,.87.17,1.21.51.34.34.51.74.51,1.21s-.17.87-.51,1.19c-.34.33-.74.49-1.21.49h-12.07c-.47,0-.87-.16-1.19-.49Z"/>
    <path d="m1331.28,30.69c-1.84-2.5-2.75-5.94-2.75-10.31s.92-7.81,2.75-10.31,4.46-3.75,7.87-3.75,5.97,1.24,7.83,3.71c1.86,2.47,2.79,5.92,2.79,10.35s-.93,7.88-2.79,10.35c-1.86,2.47-4.47,3.71-7.83,3.71s-6.04-1.25-7.87-3.75Zm2.71-2.4c1.22,1.86,2.94,2.79,5.16,2.79s3.93-.93,5.16-2.79c1.22-1.86,1.84-4.5,1.84-7.91s-.61-6.01-1.84-7.87c-1.22-1.86-2.94-2.79-5.16-2.79s-3.93.93-5.16,2.79c-1.22,1.86-1.84,4.49-1.84,7.87s.61,6.05,1.84,7.91Z"/>
    <path d="m1355.81,30.69c-1.84-2.5-2.75-5.94-2.75-10.31s.92-7.81,2.75-10.31,4.46-3.75,7.87-3.75,5.97,1.24,7.83,3.71c1.86,2.47,2.79,5.92,2.79,10.35s-.93,7.88-2.79,10.35c-1.86,2.47-4.47,3.71-7.83,3.71s-6.04-1.25-7.87-3.75Zm2.71-2.4c1.22,1.86,2.94,2.79,5.16,2.79s3.93-.93,5.16-2.79c1.22-1.86,1.84-4.5,1.84-7.91s-.61-6.01-1.84-7.87c-1.22-1.86-2.94-2.79-5.16-2.79s-3.93.93-5.16,2.79c-1.22,1.86-1.84,4.49-1.84,7.87s.61,6.05,1.84,7.91Z"/>
    <path d="m1384.79,33.84c-.4-.27-.7-.63-.88-1.07l-6.8-16.25c-.13-.34-.2-.61-.2-.82,0-.49.18-.92.53-1.29.35-.36.77-.55,1.27-.55.34,0,.66.1.98.29s.53.45.66.76l5.62,14.3c.08.18.18.27.31.27s.23-.09.31-.27l5.62-14.3c.13-.31.35-.57.66-.76s.64-.29.98-.29c.49,0,.92.18,1.27.55.35.37.53.79.53,1.29,0,.21-.07.48-.2.82l-6.8,16.25c-.18.44-.48.8-.88,1.07-.4.27-.84.41-1.31.41h-.39c-.47,0-.91-.14-1.31-.41Z"/>
    <path d="m1404.25,33.78c-.43-.31-.72-.72-.88-1.21l-5.55-16.25c-.08-.23-.12-.46-.12-.66,0-.49.18-.92.53-1.27s.77-.53,1.27-.53c.39,0,.74.1,1.04.29.3.2.5.46.61.8l4.26,13.98c.08.21.17.31.27.31s.2-.1.27-.31l4.22-13.63c.13-.44.38-.79.74-1.05.36-.26.77-.39,1.21-.39s.85.13,1.21.39c.36.26.61.61.74,1.05l4.22,13.63c.08.21.17.31.27.31s.2-.1.27-.31l4.26-13.98c.1-.34.31-.61.61-.8.3-.2.64-.29,1.04-.29.49,0,.92.18,1.27.53s.53.78.53,1.27c0,.21-.04.43-.12.66l-5.55,16.25c-.16.5-.45.9-.88,1.21s-.91.47-1.43.47-1-.16-1.43-.47-.74-.73-.92-1.25l-3.83-11.91c-.08-.21-.17-.31-.27-.31s-.2.1-.27.31l-3.83,11.91c-.18.52-.49.94-.92,1.25s-.91.47-1.43.47-1-.16-1.43-.47Z"/>
  </g>
  <g>
    <path d="m393.61,30.69c-1.84-2.5-2.75-5.94-2.75-10.31s.92-7.81,2.75-10.31,4.46-3.75,7.87-3.75,5.97,1.24,7.83,3.71c1.86,2.47,2.79,5.92,2.79,10.35s-.93,7.88-2.79,10.35c-1.86,2.47-4.47,3.71-7.83,3.71s-6.04-1.25-7.87-3.75Zm2.71-2.4c1.22,1.86,2.94,2.79,5.16,2.79s3.93-.93,5.16-2.79c1.22-1.86,1.84-4.5,1.84-7.91s-.61-6.01-1.84-7.87c-1.22-1.86-2.94-2.79-5.16-2.79s-3.93.93-5.16,2.79c-1.22,1.86-1.84,4.49-1.84,7.87s.61,6.05,1.84,7.91Z"/>
    <path d="m422.59,33.84c-.4-.27-.7-.63-.88-1.07l-6.8-16.25c-.13-.34-.2-.61-.2-.82,0-.49.18-.92.53-1.29.35-.36.77-.55,1.27-.55.34,0,.66.1.98.29s.53.45.66.76l5.62,14.3c.08.18.18.27.31.27s.23-.09.31-.27l5.62-14.3c.13-.31.35-.57.66-.76s.64-.29.98-.29c.49,0,.92.18,1.27.55.35.37.53.79.53,1.29,0,.21-.07.48-.2.82l-6.8,16.25c-.18.44-.48.8-.88,1.07-.4.27-.84.41-1.31.41h-.39c-.47,0-.91-.14-1.31-.41Z"/>
    <path d="m442.05,33.78c-.43-.31-.72-.72-.88-1.21l-5.55-16.25c-.08-.23-.12-.46-.12-.66,0-.49.18-.92.53-1.27s.77-.53,1.27-.53c.39,0,.74.1,1.04.29.3.2.5.46.61.8l4.26,13.98c.08.21.17.31.27.31s.2-.1.27-.31l4.22-13.63c.13-.44.38-.79.74-1.05.36-.26.77-.39,1.21-.39s.85.13,1.21.39c.36.26.61.61.74,1.05l4.22,13.63c.08.21.17.31.27.31s.2-.1.27-.31l4.26-13.98c.1-.34.31-.61.61-.8.3-.2.64-.29,1.04-.29.49,0,.92.18,1.27.53s.53.78.53,1.27c0,.21-.04.43-.12.66l-5.55,16.25c-.16.5-.45.9-.88,1.21s-.91.47-1.43.47-1-.16-1.43-.47-.74-.73-.92-1.25l-3.83-11.91c-.08-.21-.17-.31-.27-.31s-.2.1-.27.31l-3.83,11.91c-.18.52-.49.94-.92,1.25s-.91.47-1.43.47-1-.16-1.43-.47Z"/>
  </g>
  <g>
    <path d="m26.73,30.53c-.31-.31-.47-.69-.47-1.13,0-.47.15-.86.45-1.17.3-.31.68-.47,1.15-.47h7.38c.44,0,.83.16,1.15.49.33.33.49.71.49,1.15,0,.47-.16.85-.47,1.15-.31.3-.7.45-1.17.45h-7.38c-.44,0-.82-.16-1.13-.47Z"/>
    <path d="m45.26,39.88c-.33-.33-.49-.72-.49-1.19s.16-.87.49-1.21c.33-.34.72-.51,1.19-.51h4.61v-19.1c0-.18-.05-.31-.14-.37-.09-.06-.23-.04-.41.06l-3.4,1.64c-.34.16-.64.23-.9.23-.5,0-.91-.16-1.23-.49-.33-.33-.49-.74-.49-1.23,0-.75.35-1.3,1.05-1.64l5.31-2.77c.29-.18.65-.27,1.09-.27h.82c.52,0,.97.19,1.35.57.38.38.57.83.57,1.35v22.03h3.83c.47,0,.87.17,1.21.51.34.34.51.74.51,1.21s-.17.87-.51,1.19c-.34.33-.74.49-1.21.49h-12.07c-.47,0-.87-.16-1.19-.49Z"/>
    <path d="m68.47,37.01c-1.84-2.5-2.75-5.94-2.75-10.31s.92-7.81,2.75-10.31,4.46-3.75,7.87-3.75,5.97,1.24,7.83,3.71c1.86,2.47,2.79,5.92,2.79,10.35s-.93,7.88-2.79,10.35c-1.86,2.47-4.47,3.71-7.83,3.71s-6.04-1.25-7.87-3.75Zm2.71-2.4c1.22,1.86,2.94,2.79,5.16,2.79s3.93-.93,5.16-2.79c1.22-1.86,1.84-4.5,1.84-7.91s-.61-6.01-1.84-7.87c-1.22-1.86-2.94-2.79-5.16-2.79s-3.93.93-5.16,2.79c-1.22,1.86-1.84,4.49-1.84,7.87s.61,6.05,1.84,7.91Z"/>
    <path d="m93,37.01c-1.84-2.5-2.75-5.94-2.75-10.31s.92-7.81,2.75-10.31,4.46-3.75,7.87-3.75,5.97,1.24,7.83,3.71c1.86,2.47,2.79,5.92,2.79,10.35s-.93,7.88-2.79,10.35c-1.86,2.47-4.47,3.71-7.83,3.71s-6.04-1.25-7.87-3.75Zm2.71-2.4c1.22,1.86,2.94,2.79,5.16,2.79s3.93-.93,5.16-2.79c1.22-1.86,1.84-4.5,1.84-7.91s-.61-6.01-1.84-7.87c-1.22-1.86-2.94-2.79-5.16-2.79s-3.93.93-5.16,2.79c-1.22,1.86-1.84,4.49-1.84,7.87s.61,6.05,1.84,7.91Z"/>
    <path d="m116.46,14.31c1.12-1.3,2.67-1.95,4.65-1.95s3.53.65,4.65,1.95c1.12,1.3,1.68,3,1.68,5.08s-.56,3.78-1.68,5.08c-1.12,1.3-2.67,1.95-4.65,1.95s-3.53-.65-4.65-1.95c-1.12-1.3-1.68-2.99-1.68-5.08s.56-3.78,1.68-5.08Zm2.09,8.3c.64.79,1.49,1.19,2.56,1.19s1.92-.4,2.56-1.19c.64-.79.96-1.87.96-3.22s-.32-2.43-.96-3.22c-.64-.79-1.49-1.19-2.56-1.19s-1.92.4-2.56,1.19c-.64.79-.96,1.87-.96,3.22s.32,2.43.96,3.22Zm1.64,17.75c-.27-.26-.41-.57-.41-.94,0-.26.06-.49.2-.7l15.9-25.43c.29-.42.66-.62,1.13-.62.42,0,.75.11,1,.33.25.22.37.51.37.88,0,.31-.09.61-.27.9l-15.78,25.27c-.29.47-.69.7-1.21.7-.34,0-.64-.13-.92-.39Zm12.13-11.41c1.12-1.3,2.67-1.95,4.65-1.95s3.53.65,4.65,1.95c1.12,1.3,1.68,3,1.68,5.08s-.56,3.78-1.68,5.08c-1.12,1.3-2.67,1.95-4.65,1.95s-3.53-.65-4.65-1.95c-1.12-1.3-1.68-2.99-1.68-5.08s.56-3.78,1.68-5.08Zm2.09,8.3c.64.79,1.49,1.19,2.56,1.19s1.92-.4,2.56-1.19c.64-.79.96-1.87.96-3.22s-.32-2.43-.96-3.22c-.64-.79-1.49-1.19-2.56-1.19s-1.92.4-2.56,1.19c-.64.79-.96,1.87-.96,3.22s.32,2.43.96,3.22Z"/>
  </g>
  <line class="cls-6" x1="84.27" y1="643.45" x2="1364.97" y2="643.45"/>
  <line class="cls-5" x1="84.27" y1="617.77" x2="84.27" y2="668.83"/>
  <line class="cls-5" x1="1364.97" y1="617.92" x2="1364.97" y2="668.98"/>
  <g>
    <path d="m1284.49,714.78c0-1.25.28-2.16.84-2.73.56-.57,1.45-.83,2.68-.78h7.77c1.12,0,1.94.26,2.46.78.52.52.75,1.33.7,2.42v6.29c0,1.15-.25,1.98-.76,2.5-.51.52-1.31.76-2.4.7h-8.28v20.04c0,1.07-.51,1.6-1.52,1.6s-1.48-.53-1.48-1.6v-29.22Zm11.6,1.56v-1.29c0-.78-.4-1.18-1.21-1.21h-6.09c-.81,0-1.24.42-1.29,1.25v1.25h8.59Zm-1.21,5.08c.75,0,1.16-.42,1.21-1.25v-1.41h-8.59v2.66h7.38Zm-3.98,11.84h4.34l.04-3.09-.04-1.21h-3.05c-1.02,0-1.52-.44-1.52-1.33s.51-1.33,1.52-1.33h17.38c1.02,0,1.52.46,1.52,1.37,0,.86-.51,1.29-1.52,1.29h-3.2v4.3h4.57c1.02,0,1.52.46,1.52,1.37s-.51,1.33-1.52,1.33h-4.57v7.27c0,1.07-.48,1.6-1.45,1.6s-1.45-.53-1.45-1.6v-7.27h-5.59c-.29,2.73-1.13,4.84-2.54,6.33-1.46,1.54-2.9,2.3-4.34,2.3-.96,0-1.45-.5-1.45-1.48,0-.6.52-1.12,1.56-1.56,2.34-.96,3.65-2.83,3.91-5.59h-4.14c-1.02,0-1.52-.46-1.52-1.37s.51-1.33,1.52-1.33Zm12.58,0v-4.3h-5.39l.04,1.91-.08,2.38h5.43Zm5.86,10.66c0-1.09.53-1.64,1.6-1.64h1.64c.55,0,.97-.14,1.27-.43.3-.29.45-.7.45-1.25v-16.64h-8.75c-1.15,0-1.98-.25-2.5-.76-.52-.51-.76-1.32-.7-2.44v-6.29c0-1.12.26-1.94.78-2.46s1.33-.77,2.42-.74h8.24c1.25,0,2.15.28,2.71.84.56.56.83,1.45.8,2.68v26.56c0,1.51-.33,2.61-.98,3.3-.65.69-1.67.98-3.05.88h-2.27c-1.12,0-1.68-.53-1.68-1.6Zm4.96-27.58v-1.25c0-.78-.43-1.2-1.29-1.25h-6.6c-.81,0-1.21.4-1.21,1.21v1.29h9.1Zm-7.89,5.08h7.89v-2.66h-9.1v1.41c0,.78.4,1.2,1.21,1.25Z"/>
    <path d="m1322.97,743.03c0-.55.49-1.12,1.48-1.72,2.16-1.38,3.84-2.96,5.04-4.73-1.25-.99-2.23-1.78-2.93-2.36s-1.24-1.09-1.6-1.5c-.34-.36-.51-.87-.51-1.52,0-.44.08-1.02.23-1.72.52-2.06,1.03-4.82,1.52-8.28h-1.84c-1.02,0-1.52-.51-1.52-1.52s.6-1.52,1.8-1.52h2.03l.7-6.52c.05-.49.22-.88.51-1.15.29-.27.65-.41,1.09-.41,1.02,0,1.52.52,1.52,1.56l-.78,6.41h3.4c1.95,0,2.93.98,2.93,2.93s-.18,4.18-.55,6.76c-.44,3.2-1.21,5.95-2.3,8.24,2.45,2.21,3.67,3.72,3.67,4.53,0,1.12-.56,1.68-1.68,1.68-.52,0-1.37-.75-2.54-2.27l-1.09-1.25c-1.2,1.72-2.49,3.15-3.87,4.3-1.41,1.17-2.5,1.76-3.28,1.76-.96,0-1.45-.56-1.45-1.68Zm4.53-12.38c0,.31.1.57.31.78.65.6,1.12,1,1.41,1.21l1.68,1.37c1.15-2.76,1.85-5.94,2.11-9.53l.16-2.38c.05-.7-.37-1.05-1.25-1.05h-2.7c-.39,2.71-.77,4.92-1.13,6.64l-.55,2.5c-.03.1-.04.26-.04.47Zm12.38-8.05c1.02-2.86,1.93-6.08,2.73-9.65.31-1.41.6-2.24.86-2.5.29-.29.68-.43,1.17-.43,1.22,0,1.84.48,1.84,1.45,0,.34-.22,1.24-.66,2.7l-2.81,8.2,1.02-.08c4.17-.42,7.13-.73,8.91-.94l-2.07-3.36c-.05-.1-.18-.31-.39-.62-.21-.31-.31-.57-.31-.78,0-.91.49-1.37,1.48-1.37.75,0,2.08,1.43,3.98,4.3,1.02,1.51,1.76,2.68,2.23,3.52.47.83.7,1.41.7,1.72,0,1.07-.56,1.6-1.68,1.6-.68,0-1.35-.59-2.03-1.76l-.35-.7c-6.77.83-12.2,1.48-16.29,1.95-.55.05-.96-.07-1.25-.37-.29-.3-.43-.72-.43-1.27,0-1.02,1.12-1.55,3.36-1.6Zm-1.41,9.8c0-1.38.3-2.38.9-3.01.6-.62,1.56-.88,2.89-.78h10.27c2.73-.18,4,1.08,3.79,3.79v8.12c.18,2.71-1.08,3.97-3.79,3.79h-10.27c-2.68.18-3.95-1.08-3.79-3.79v-8.12Zm3.61,8.5c.27.27.7.41,1.27.41h8.09c1.12,0,1.68-.56,1.68-1.68v-6.33c0-1.12-.56-1.68-1.68-1.68h-8.09c-1.15,0-1.71.56-1.68,1.68v6.33c0,.57.14,1,.41,1.27Z"/>
    <path d="m1364.18,725.84c2.66-4.32,4.78-8.96,6.37-13.91.21-.65.46-1.13.74-1.45.29-.31.62-.47,1.02-.47,1.22,0,1.84.5,1.84,1.48,0,.52-.28,1.48-.84,2.87-.56,1.39-1.31,2.98-2.25,4.75v24.61c0,1.25-.52,1.88-1.56,1.88s-1.52-.62-1.52-1.88v-18.52l-.08.23-.31.55c-1.64,2.87-2.73,4.3-3.28,4.3-.94,0-1.41-.59-1.41-1.76,0-.39.43-1.29,1.29-2.7Zm8.36,16.29c0-1.04.57-1.56,1.72-1.56h12.93c.7-2.86,1.27-5.27,1.7-7.23s.81-3.91,1.15-5.86c.05-.21.1-.56.16-1.05.29-1.64.48-2.6.59-2.89.21-.57.69-.86,1.45-.86.57,0,1.01.16,1.31.47.3.31.42.73.37,1.25l-.16.9c-.78,4.53-1.94,9.43-3.48,14.69l-.2.59h6.6c1.17,0,1.76.52,1.76,1.56s-.59,1.56-1.76,1.56h-22.42c-1.15,0-1.72-.52-1.72-1.56Zm2.38-24.77h8.48v-5c0-1.41.55-2.11,1.64-2.11s1.64.7,1.64,2.11v5h9.34c1.17,0,1.76.51,1.76,1.52s-.59,1.56-1.76,1.56h-21.09c-1.15,0-1.72-.52-1.72-1.56s.57-1.52,1.72-1.52Zm1.56,6.31c.26-.27.65-.41,1.17-.41.7,0,1.18.38,1.45,1.13.44,1.3.85,2.76,1.21,4.38l1.45,6.76c.13.6.2,1,.2,1.21,0,1.07-.56,1.6-1.68,1.6-.78,0-1.29-.4-1.52-1.21l-2.66-12.34c0-.47.13-.84.39-1.11Z"/>
    <path d="m1404.37,721.81h15.23v-1.91h-11.64c-1.15,0-1.97-.25-2.48-.74-.51-.49-.74-1.28-.68-2.34v-2.19c0-1.12.25-1.94.74-2.46.49-.52,1.3-.75,2.42-.7h25.51c1.12,0,1.93.25,2.42.76.49.51.72,1.31.66,2.4v2.19c0,1.09-.25,1.89-.74,2.4-.5.51-1.28.74-2.34.68h-10.66v1.91h13.83c.96,0,1.45.42,1.45,1.25s-.48,1.25-1.45,1.25h-13.83v1.91h8.36c1.17,0,2.02.26,2.54.78.52.52.75,1.34.7,2.46v7.34c0,1.15-.26,1.99-.78,2.52-.52.53-1.34.78-2.46.72h-16.8c-1.17,0-2.03-.26-2.56-.78-.53-.52-.78-1.34-.72-2.46v-7.34c0-1.17.26-2.02.78-2.54s1.35-.75,2.5-.7h5.23v-1.91h-15.23c-.96,0-1.45-.42-1.45-1.25s.48-1.25,1.45-1.25Zm1.09,21.7c-.57-.56-.82-1.45-.74-2.68v-10.9c0-1.25.53-1.88,1.6-1.88s1.64.62,1.64,1.88v10.47c0,.89.47,1.35,1.41,1.41h27.77c.88,0,1.33.43,1.33,1.29s-.44,1.25-1.33,1.25h-28.91c-1.28,0-2.2-.28-2.77-.84Zm3.32-26.04h5.66v-3.48h-5.66c-.73,0-1.12.39-1.17,1.17v1.13c0,.73.39,1.12,1.17,1.17Zm22.5,12.7v-.55c0-.78-.39-1.18-1.17-1.21h-14.8c-.39,0-.68.1-.88.31-.2.21-.29.51-.29.9v.55h17.15Zm0,3.83v-1.76h-17.15v1.76h17.15Zm-15.98,3.83h14.8c.75,0,1.15-.39,1.17-1.17v-.59h-17.15v.59c0,.73.39,1.12,1.17,1.17Zm8.48-20.35v-3.48h-6.52v3.48h6.52Zm8.59,0c.75,0,1.16-.39,1.21-1.17v-1.13c0-.75-.4-1.15-1.21-1.17h-5.78v3.48h5.78Z"/>
  </g>
  <g>
    <path d="m8.01,743.81v-14.73l-4.53.47c-.47.03-.82-.1-1.05-.37s-.35-.66-.35-1.15c0-1.12.96-1.64,2.89-1.56l.31.04,2.66-3.87c-1.25-1.12-2.81-2.29-4.69-3.52-.62-.39-.94-.85-.94-1.37,0-.96.48-1.45,1.45-1.45.29,0,.75.21,1.41.62,1.2-2,2.13-3.87,2.81-5.59.39-.96.96-1.45,1.72-1.45,1.09,0,1.64.5,1.64,1.48,0,.91-1.35,3.27-4.06,7.07l-.04.04,2.3,1.76c1.07-1.67,1.88-3.03,2.42-4.1.44-.83.98-1.25,1.6-1.25,1.04,0,1.56.48,1.56,1.45,0,.37-.83,1.78-2.5,4.26-1.67,2.5-3.09,4.44-4.26,5.82l4.53-.23h.16l-.55-2.03c0-.78.4-1.17,1.21-1.17.7,0,1.38.91,2.03,2.73.65,1.85.98,2.97.98,3.36,0,.89-.46,1.33-1.37,1.33-.68,0-1.21-.66-1.6-1.99l-.7.08-1.99.31v15c0,1.15-.51,1.72-1.52,1.72s-1.52-.57-1.52-1.72Zm-5.59-4.69c.65-1.85,1.05-3.96,1.21-6.33.08-1.09.53-1.64,1.37-1.64.47,0,.81.12,1.04.35.22.23.33.6.33,1.09,0,1.82-.31,4.02-.94,6.6-.21.94-.47,1.63-.78,2.07-.31.44-.69.66-1.13.66-.5,0-.86-.11-1.09-.33s-.35-.57-.35-1.04c0-.31.12-.79.35-1.45Zm10.47-7.7c.23-.18.56-.27.98-.27.73,0,1.22.53,1.48,1.6.86,3.46,1.29,5.79,1.29,6.99,0,.91-.48,1.37-1.45,1.37-.47,0-.82-.18-1.05-.55-.23-.36-.4-.94-.51-1.72-.34-2.86-.61-4.62-.82-5.27l-.2-1.33c-.05-.36.04-.64.27-.82Zm5.08-15.82h7.23v-3.71c0-.62.14-1.09.41-1.41s.66-.47,1.15-.47.88.16,1.15.47.41.78.41,1.41v3.71h7.66c1.2,0,1.8.48,1.8,1.45s-.6,1.41-1.8,1.41h-7.66v5.59h6.88c1.17,0,1.76.47,1.76,1.41s-.59,1.45-1.76,1.45h-16.17c-1.15,0-1.72-.48-1.72-1.45s.57-1.41,1.72-1.41h6.17v-5.59h-7.23c-1.15,0-1.72-.48-1.72-1.45s.57-1.41,1.72-1.41Zm.31,18.44c0-1.22.27-2.12.82-2.68.55-.56,1.42-.81,2.62-.76h10.59c1.25,0,2.15.27,2.71.8.56.53.8,1.41.72,2.64v7.03c0,1.25-.27,2.15-.8,2.71-.53.56-1.41.8-2.64.72h-10.59c-1.22,0-2.12-.27-2.68-.82-.56-.55-.81-1.42-.76-2.62v-7.03Zm4.45,7.66h8.52c.47,0,.83-.13,1.07-.39.25-.26.37-.61.37-1.05v-5.35c0-.47-.13-.83-.39-1.07-.26-.25-.61-.37-1.05-.37h-8.52c-.96,0-1.45.48-1.45,1.45v5.35c0,.96.48,1.45,1.45,1.45Z"/>
    <path d="m58.32,743.65v-10.23c-2.24,2.4-4.97,4.66-8.2,6.8-3.26,2.16-5.38,3.24-6.37,3.24s-1.52-.56-1.52-1.68c0-.62.61-1.2,1.84-1.72,5.62-2.42,9.96-5.27,13.01-8.55h-8.24c-1.2,0-2.07-.25-2.62-.76s-.79-1.35-.74-2.52v-4.61c0-1.22.27-2.11.8-2.66.53-.55,1.39-.78,2.56-.7h9.49v-3.36h-13.98c-1.25,0-1.88-.51-1.88-1.52s.62-1.56,1.88-1.56h13.98v-2.46c0-.88.53-1.33,1.6-1.33s1.56.44,1.56,1.33v2.46h14.14c1.28,0,1.91.52,1.91,1.56s-.64,1.52-1.91,1.52h-14.14v3.36h9.65c1.22,0,2.11.27,2.66.8.55.53.78,1.39.7,2.56v4.53c0,1.22-.26,2.11-.78,2.66-.52.55-1.38.78-2.58.7h-8.44c3.31,3.85,7.63,6.6,12.97,8.24,1.41.44,2.11,1.04,2.11,1.8,0,1.15-.56,1.72-1.68,1.72-.89,0-2.41-.6-4.57-1.8-2.14-1.22-4.01-2.47-5.62-3.75-1.62-1.28-3.09-2.7-4.41-4.26v10.2c0,1.28-.52,1.91-1.56,1.91s-1.6-.64-1.6-1.91Zm-8.24-14.8h8.24v-5.9h-8.24c-.89,0-1.35.46-1.41,1.37v3.16c0,.86.47,1.32,1.41,1.37Zm19.88,0c.86,0,1.31-.46,1.37-1.37v-3.16c0-.86-.46-1.31-1.37-1.37h-8.48v5.9h8.48Z"/>
    <path d="m83.48,725.84c2.66-4.32,4.78-8.96,6.37-13.91.21-.65.46-1.13.74-1.45.29-.31.62-.47,1.02-.47,1.22,0,1.84.5,1.84,1.48,0,.52-.28,1.48-.84,2.87-.56,1.39-1.31,2.98-2.25,4.75v24.61c0,1.25-.52,1.88-1.56,1.88s-1.52-.62-1.52-1.88v-18.52l-.08.23-.31.55c-1.64,2.87-2.73,4.3-3.28,4.3-.94,0-1.41-.59-1.41-1.76,0-.39.43-1.29,1.29-2.7Zm8.36,16.29c0-1.04.57-1.56,1.72-1.56h12.93c.7-2.86,1.27-5.27,1.7-7.23s.81-3.91,1.15-5.86c.05-.21.1-.56.16-1.05.29-1.64.48-2.6.59-2.89.21-.57.69-.86,1.45-.86.57,0,1.01.16,1.31.47.3.31.42.73.37,1.25l-.16.9c-.78,4.53-1.94,9.43-3.48,14.69l-.2.59h6.6c1.17,0,1.76.52,1.76,1.56s-.59,1.56-1.76,1.56h-22.42c-1.15,0-1.72-.52-1.72-1.56Zm2.38-24.77h8.48v-5c0-1.41.55-2.11,1.64-2.11s1.64.7,1.64,2.11v5h9.34c1.17,0,1.76.51,1.76,1.52s-.59,1.56-1.76,1.56h-21.09c-1.15,0-1.72-.52-1.72-1.56s.57-1.52,1.72-1.52Zm1.56,6.31c.26-.27.65-.41,1.17-.41.7,0,1.18.38,1.45,1.13.44,1.3.85,2.76,1.21,4.38l1.45,6.76c.13.6.2,1,.2,1.21,0,1.07-.56,1.6-1.68,1.6-.78,0-1.29-.4-1.52-1.21l-2.66-12.34c0-.47.13-.84.39-1.11Z"/>
    <path d="m123.67,721.81h15.23v-1.91h-11.64c-1.15,0-1.97-.25-2.48-.74-.51-.49-.74-1.28-.68-2.34v-2.19c0-1.12.25-1.94.74-2.46.49-.52,1.3-.75,2.42-.7h25.51c1.12,0,1.93.25,2.42.76.49.51.72,1.31.66,2.4v2.19c0,1.09-.25,1.89-.74,2.4-.5.51-1.28.74-2.34.68h-10.66v1.91h13.83c.96,0,1.45.42,1.45,1.25s-.48,1.25-1.45,1.25h-13.83v1.91h8.36c1.17,0,2.02.26,2.54.78.52.52.75,1.34.7,2.46v7.34c0,1.15-.26,1.99-.78,2.52-.52.53-1.34.78-2.46.72h-16.8c-1.17,0-2.03-.26-2.56-.78-.53-.52-.78-1.34-.72-2.46v-7.34c0-1.17.26-2.02.78-2.54s1.35-.75,2.5-.7h5.23v-1.91h-15.23c-.96,0-1.45-.42-1.45-1.25s.48-1.25,1.45-1.25Zm1.09,21.7c-.57-.56-.82-1.45-.74-2.68v-10.9c0-1.25.53-1.88,1.6-1.88s1.64.62,1.64,1.88v10.47c0,.89.47,1.35,1.41,1.41h27.77c.88,0,1.33.43,1.33,1.29s-.44,1.25-1.33,1.25h-28.91c-1.28,0-2.2-.28-2.77-.84Zm3.32-26.04h5.66v-3.48h-5.66c-.73,0-1.12.39-1.17,1.17v1.13c0,.73.39,1.12,1.17,1.17Zm22.5,12.7v-.55c0-.78-.39-1.18-1.17-1.21h-14.8c-.39,0-.68.1-.88.31-.2.21-.29.51-.29.9v.55h17.15Zm0,3.83v-1.76h-17.15v1.76h17.15Zm-15.98,3.83h14.8c.75,0,1.15-.39,1.17-1.17v-.59h-17.15v.59c0,.73.39,1.12,1.17,1.17Zm8.48-20.35v-3.48h-6.52v3.48h6.52Zm8.59,0c.75,0,1.16-.39,1.21-1.17v-1.13c0-.75-.4-1.15-1.21-1.17h-5.78v3.48h5.78Z"/>
  </g>
</svg>