<?xml version="1.0" encoding="UTF-8"?>
<svg id="_圖層_2" data-name="圖層 2" xmlns="http://www.w3.org/2000/svg" viewBox="0 0 1180.05 103.89">
  <defs>
    <style>
      .cls-1 {
        fill: #a1ccd1;
      }

      .cls-2 {
        fill: #f4f2de;
      }

      .cls-3 {
        fill: #e9b384;
      }
    </style>
  </defs>
  <g id="_圖層_1-2" data-name="圖層 1">
    <g>
      <polygon class="cls-3" points="247.43 36.77 217.79 0 .28 0 .66 .47 0 .47 0 74 217.74 74 217.74 73.53 217.79 73.53 247.43 36.77"/>
      <g>
        <path d="m27.99,45.26c-.49-.31-.73-.73-.73-1.26,0-.35.12-.67.37-.96.24-.29.55-.43.93-.43.24,0,.44.04.6.13,1,.49,2.03.73,3.09.73,1.28,0,2.27-.37,2.96-1.1.69-.73,1.03-1.99,1.03-3.79v-14.38c0-.42.15-.79.45-1.1.3-.31.66-.46,1.08-.46s.79.16,1.1.46c.31.31.46.68.46,1.1v14.18c0,2.63-.58,4.63-1.74,5.98-1.16,1.35-2.87,2.03-5.13,2.03-1.62,0-3.1-.38-4.45-1.13Z"/>
        <path d="m46.58,45.79c-.86-.4-1.54-.98-2.03-1.76-.49-.77-.73-1.66-.73-2.66,0-1.73.67-3.06,2.01-4,1.34-.94,3.23-1.41,5.66-1.41h3.98v-.23c0-1.42-.35-2.45-1.05-3.1-.7-.65-1.82-.98-3.37-.98-.8,0-1.52.06-2.16.18-.64.12-1.39.33-2.26.61l-.43.07c-.33,0-.63-.13-.88-.38-.25-.25-.38-.56-.38-.91,0-.62.3-1.05.9-1.29,1.86-.8,3.77-1.2,5.74-1.2,1.53,0,2.83.31,3.92.93,1.02.6,1.78,1.39,2.29,2.37.51.99.76,2.08.76,3.27v9.4c0,.42-.16.78-.46,1.08-.31.3-.68.45-1.1.45s-.78-.15-1.08-.45-.45-.66-.45-1.08v-.8c-1.59,1.66-3.66,2.49-6.21,2.49-.95,0-1.85-.2-2.69-.6Zm3.82-2.12c.95,0,1.88-.23,2.77-.68.9-.45,1.67-1.05,2.31-1.78v-2.76h-3.59c-3.32,0-4.98.86-4.98,2.59s1.16,2.62,3.49,2.62Z"/>
        <path d="m68.51,45.87c-.34-.23-.59-.54-.75-.91l-5.78-13.81c-.11-.29-.17-.52-.17-.7,0-.42.15-.79.45-1.1.3-.31.66-.46,1.08-.46.29,0,.56.08.83.25s.45.38.56.65l4.78,12.15c.07.16.15.23.27.23s.2-.08.27-.23l4.78-12.15c.11-.27.3-.48.56-.65s.54-.25.83-.25c.42,0,.78.16,1.08.46.3.31.45.68.45,1.1,0,.18-.06.41-.17.7l-5.78,13.81c-.16.38-.4.68-.75.91-.34.23-.71.35-1.11.35h-.33c-.4,0-.77-.12-1.11-.35Z"/>
        <path d="m82.84,45.79c-.86-.4-1.54-.98-2.03-1.76-.49-.77-.73-1.66-.73-2.66,0-1.73.67-3.06,2.01-4,1.34-.94,3.23-1.41,5.66-1.41h3.98v-.23c0-1.42-.35-2.45-1.05-3.1-.7-.65-1.82-.98-3.37-.98-.8,0-1.52.06-2.16.18-.64.12-1.39.33-2.26.61l-.43.07c-.33,0-.63-.13-.88-.38-.25-.25-.38-.56-.38-.91,0-.62.3-1.05.9-1.29,1.86-.8,3.77-1.2,5.74-1.2,1.53,0,2.83.31,3.92.93,1.02.6,1.78,1.39,2.29,2.37.51.99.76,2.08.76,3.27v9.4c0,.42-.16.78-.46,1.08-.31.3-.68.45-1.1.45s-.78-.15-1.08-.45-.45-.66-.45-1.08v-.8c-1.59,1.66-3.66,2.49-6.21,2.49-.95,0-1.85-.2-2.69-.6Zm3.82-2.12c.95,0,1.88-.23,2.77-.68.9-.45,1.67-1.05,2.31-1.78v-2.76h-3.59c-3.32,0-4.98.86-4.98,2.59s1.16,2.62,3.49,2.62Z"/>
        <path d="m99.24,44.79c-.27-.11-.49-.3-.68-.56-.19-.27-.28-.54-.28-.83,0-.4.13-.74.4-1.01.27-.28.6-.42,1-.42.24,0,.45.04.63.13,2.06.91,4.24,1.36,6.54,1.36,3.85,0,5.78-1.26,5.78-3.79,0-.66-.24-1.21-.73-1.63-.44-.42-1-.75-1.66-1-.66-.24-1.76-.56-3.29-.96-1.75-.44-3.2-.9-4.35-1.36-1.35-.51-2.37-1.22-3.05-2.14-.69-.92-1.03-2.01-1.03-3.27s.33-2.42,1-3.49c.69-1.08,1.7-1.91,3.04-2.49,1.34-.58,2.87-.86,4.6-.86,2.46,0,4.66.37,6.61,1.1.64.24.96.7.96,1.36,0,.35-.13.68-.4.98s-.59.45-.96.45c-.16,0-.33-.04-.53-.13-1.73-.6-3.51-.9-5.35-.9s-3.19.33-4.27,1c-1.07.66-1.61,1.58-1.61,2.76,0,.8.27,1.43.8,1.89.49.46,1.1.84,1.83,1.13.73.29,1.83.6,3.29.93,1.86.44,3.28.86,4.25,1.26,1.17.44,2.12,1.13,2.84,2.06.72.93,1.08,2.1,1.08,3.52,0,1.22-.35,2.34-1.06,3.35-.73,1.02-1.74,1.8-3.04,2.34s-2.77.81-4.43.81c-2.81,0-5.45-.53-7.9-1.59Z"/>
        <path d="m123.11,45.32c-1.39-.73-2.49-1.77-3.29-3.12-.8-1.35-1.2-2.9-1.2-4.65s.41-3.36,1.23-4.71c.8-1.31,1.86-2.32,3.2-3.04,1.34-.72,2.83-1.08,4.47-1.08,1.11,0,2.08.14,2.92.42.84.28,1.68.67,2.52,1.18.44.31.66.71.66,1.2,0,.33-.13.64-.4.93-.27.29-.56.43-.9.43-.22,0-.46-.07-.73-.2-.77-.4-1.42-.67-1.93-.83-.51-.15-1.14-.23-1.89-.23-1.86,0-3.34.54-4.43,1.61-1.1,1.07-1.64,2.52-1.64,4.33s.55,3.26,1.64,4.33c1.1,1.07,2.57,1.61,4.43,1.61.75,0,1.38-.08,1.89-.23.51-.15,1.15-.43,1.93-.83.27-.13.51-.2.73-.2.33,0,.63.14.9.43.27.29.4.6.4.93,0,.49-.22.89-.66,1.2-.84.51-1.68.9-2.52,1.18-.84.28-1.82.42-2.92.42-1.57,0-3.04-.35-4.42-1.06Z"/>
        <path d="m137.81,45.77c-.3-.3-.45-.66-.45-1.08v-14.24c0-.42.15-.79.45-1.1.3-.31.66-.46,1.08-.46s.79.16,1.1.46c.31.31.46.68.46,1.1v1.33c1.53-2.04,3.25-3.05,5.18-3.05h.17c.42,0,.77.15,1.06.45.29.3.43.66.43,1.08s-.15.77-.45,1.05c-.3.28-.67.42-1.11.42h-.17c-1.04,0-2,.25-2.87.75-.87.5-1.62,1.21-2.24,2.14v10.09c0,.42-.16.78-.46,1.08-.31.3-.68.45-1.1.45s-.78-.15-1.08-.45Z"/>
        <path d="m149.81,23.81c0-.46.17-.87.51-1.21s.75-.51,1.21-.51h.2c.46,0,.87.17,1.21.51.34.34.51.75.51,1.21v.13c0,.46-.17.87-.51,1.21s-.75.51-1.21.51h-.2c-.46,0-.87-.17-1.21-.51-.34-.34-.51-.75-.51-1.21v-.13Zm.71,21.96c-.3-.3-.45-.66-.45-1.08v-14.24c0-.42.15-.79.45-1.1.3-.31.66-.46,1.08-.46.44,0,.81.15,1.11.45s.45.67.45,1.11v14.24c0,.42-.16.78-.46,1.08-.31.3-.68.45-1.1.45s-.78-.15-1.08-.45Z"/>
        <path d="m158.79,53.39c-.3-.31-.45-.68-.45-1.1v-21.88c0-.42.15-.78.45-1.08s.66-.45,1.08-.45.79.15,1.1.45c.31.3.46.66.46,1.08v.8c1.59-1.66,3.48-2.49,5.64-2.49,1.44,0,2.74.34,3.92,1.03,1.28.71,2.3,1.75,3.04,3.12.74,1.37,1.11,2.93,1.11,4.68s-.38,3.38-1.13,4.68c-.75,1.33-1.74,2.35-2.97,3.07s-2.55,1.08-3.97,1.08c-2.17,0-4.05-.83-5.64-2.49v8.4c0,.44-.15.81-.45,1.11s-.67.45-1.11.45-.78-.16-1.08-.46Zm5.05-10.56c.9.44,1.83.66,2.81.66,1.68,0,3-.53,3.97-1.58.96-1.05,1.44-2.51,1.44-4.37s-.48-3.31-1.44-4.37c-.96-1.05-2.29-1.58-3.97-1.58-.97,0-1.91.22-2.81.66-.9.44-1.7,1.04-2.41,1.79v6.97c.71.75,1.51,1.35,2.41,1.79Z"/>
        <path d="m180.16,41.97v-10.09h-1.66c-.42,0-.75-.12-.98-.35s-.35-.56-.35-.98.12-.75.35-.98.56-.35.98-.35h1.66v-2.36c0-.51.14-.9.42-1.16.28-.27.66-.4,1.15-.4s.86.14,1.13.42c.27.28.4.66.4,1.15v2.36h3.72c.38,0,.69.13.95.38.25.25.38.57.38.95,0,.35-.13.66-.38.93-.25.27-.57.4-.95.4h-3.72v9.83c0,.77.18,1.29.53,1.56.35.27.89.4,1.59.4.46,0,.91-.07,1.33-.2.04,0,.08-.01.1-.03.22-.04.41-.07.56-.07.33,0,.62.12.86.37.24.24.37.53.37.86,0,.51-.27.91-.8,1.2-.86.4-1.78.6-2.76.6-3.25,0-4.88-1.47-4.88-4.42Z"/>
      </g>
      <polygon class="cls-2" points="450.85 .24 233.34 .24 262.75 36.72 233.11 73.48 233.11 73.76 450.85 73.76 480.49 37 450.85 .24"/>
      <g>
        <path d="m320.77,45.46c-.27-.11-.49-.3-.68-.56-.19-.27-.28-.54-.28-.83,0-.4.13-.74.4-1.01.27-.28.6-.42,1-.42.24,0,.45.04.63.13,2.06.91,4.24,1.36,6.54,1.36,3.85,0,5.78-1.26,5.78-3.79,0-.66-.24-1.21-.73-1.63-.44-.42-1-.75-1.66-1-.66-.24-1.76-.56-3.29-.96-1.75-.44-3.2-.9-4.35-1.36-1.35-.51-2.37-1.22-3.05-2.14-.69-.92-1.03-2.01-1.03-3.27s.33-2.42,1-3.49c.69-1.08,1.7-1.91,3.04-2.49,1.34-.58,2.87-.86,4.6-.86,2.46,0,4.66.37,6.61,1.1.64.24.96.7.96,1.36,0,.35-.13.68-.4.98s-.59.45-.96.45c-.16,0-.33-.04-.53-.13-1.73-.6-3.51-.9-5.35-.9s-3.19.33-4.27,1c-1.07.66-1.61,1.58-1.61,2.76,0,.8.27,1.43.8,1.89.49.46,1.1.84,1.83,1.13.73.29,1.83.6,3.29.93,1.86.44,3.28.86,4.25,1.26,1.17.44,2.12,1.13,2.84,2.06.72.93,1.08,2.1,1.08,3.52,0,1.22-.35,2.34-1.06,3.35-.73,1.02-1.74,1.8-3.04,2.34s-2.77.81-4.43.81c-2.81,0-5.45-.53-7.9-1.59Z"/>
        <path d="m341.46,42.64v-10.09h-1.66c-.42,0-.75-.12-.98-.35s-.35-.56-.35-.98.12-.75.35-.98.56-.35.98-.35h1.66v-2.36c0-.51.14-.9.42-1.16.28-.27.66-.4,1.15-.4s.86.14,1.13.42c.27.28.4.66.4,1.15v2.36h3.72c.38,0,.69.13.95.38.25.25.38.57.38.95,0,.35-.13.66-.38.93-.25.27-.57.4-.95.4h-3.72v9.83c0,.77.18,1.29.53,1.56.35.27.89.4,1.59.4.46,0,.91-.07,1.33-.2.04,0,.08-.01.1-.03.22-.04.41-.07.56-.07.33,0,.62.12.86.37.24.24.37.53.37.86,0,.51-.27.91-.8,1.2-.86.4-1.78.6-2.76.6-3.25,0-4.88-1.47-4.88-4.42Z"/>
        <path d="m355.94,54.08c-.29-.3-.43-.65-.43-1.05,0-.18.03-.35.1-.53l2.16-5.54-6.24-15.21c-.09-.22-.13-.43-.13-.63,0-.42.15-.79.45-1.1.3-.31.66-.46,1.08-.46.31,0,.6.09.86.27.27.18.45.41.56.7l5.08,12.58,5.18-12.52c.31-.69.79-1.03,1.43-1.03.42,0,.78.16,1.08.46.3.31.45.68.45,1.1,0,.2-.03.39-.1.56l-9.06,21.78c-.31.71-.79,1.06-1.43,1.06-.4,0-.74-.15-1.03-.45Z"/>
        <path d="m371.42,46.44c-.3-.3-.45-.66-.45-1.08v-21.55c0-.42.15-.79.45-1.1.3-.31.66-.46,1.08-.46.44,0,.81.15,1.11.45s.45.67.45,1.11v21.55c0,.42-.16.78-.46,1.08-.31.3-.68.45-1.1.45s-.78-.15-1.08-.45Z"/>
        <path d="m380.49,44.73c-1.52-1.55-2.27-3.72-2.27-6.51,0-1.5.29-2.96.86-4.35.6-1.39,1.5-2.49,2.72-3.29,1.22-.8,2.68-1.2,4.38-1.2s3.07.38,4.28,1.13c1.15.75,2.05,1.77,2.69,3.04.64,1.27.96,2.68.96,4.23,0,.42-.14.78-.43,1.08-.29.3-.66.45-1.13.45h-11.22c.2,1.57.79,2.77,1.78,3.6.98.83,2.32,1.25,4,1.25.89,0,1.68-.08,2.37-.25s1.4-.43,2.11-.78c.15-.09.35-.13.6-.13.35,0,.67.13.95.38.28.25.42.57.42.95,0,.51-.3.93-.9,1.26-.93.51-1.82.88-2.66,1.11-.84.23-1.89.35-3.15.35-2.72,0-4.84-.77-6.36-2.32Zm10.14-7.94c.29,0,.42-.14.4-.43-.09-.89-.35-1.63-.8-2.22-.49-.71-1.09-1.24-1.81-1.59-.72-.35-1.47-.53-2.24-.53-.71,0-1.45.17-2.22.5-.77.38-1.39.94-1.84,1.68-.45.74-.71,1.61-.78,2.61h9.3Z"/>
      </g>
      <polygon class="cls-2" points="683.93 .24 466.42 .24 495.83 36.72 466.19 73.48 466.19 73.76 683.93 73.76 713.57 37 683.93 .24"/>
      <g>
        <path d="m539.35,46.09c-.42-.42-.63-.92-.63-1.49v-19.72c0-.42.15-.79.45-1.1.3-.31.66-.46,1.08-.46s.79.16,1.1.46c.31.31.46.68.46,1.1v18.36c0,.27.13.4.4.4h10.43c.42,0,.79.16,1.1.46.31.31.46.68.46,1.1s-.16.78-.46,1.08c-.31.3-.68.45-1.1.45h-11.79c-.58,0-1.07-.21-1.49-.63Z"/>
        <path d="m558.9,46.46c-.86-.4-1.54-.98-2.03-1.76-.49-.77-.73-1.66-.73-2.66,0-1.73.67-3.06,2.01-4,1.34-.94,3.23-1.41,5.66-1.41h3.98v-.23c0-1.42-.35-2.45-1.05-3.1-.7-.65-1.82-.98-3.37-.98-.8,0-1.52.06-2.16.18-.64.12-1.39.33-2.26.61l-.43.07c-.33,0-.63-.13-.88-.38-.25-.25-.38-.56-.38-.91,0-.62.3-1.05.9-1.29,1.86-.8,3.77-1.2,5.74-1.2,1.53,0,2.83.31,3.92.93,1.02.6,1.78,1.39,2.29,2.37.51.99.76,2.08.76,3.27v9.4c0,.42-.16.78-.46,1.08-.31.3-.68.45-1.1.45s-.78-.15-1.08-.45-.45-.66-.45-1.08v-.8c-1.59,1.66-3.66,2.49-6.21,2.49-.95,0-1.85-.2-2.69-.6Zm3.82-2.12c.95,0,1.88-.23,2.77-.68.9-.45,1.67-1.05,2.31-1.78v-2.76h-3.59c-3.32,0-4.98.86-4.98,2.59s1.16,2.62,3.49,2.62Z"/>
        <path d="m578.69,54.08c-.29-.3-.43-.65-.43-1.05,0-.18.03-.35.1-.53l2.16-5.54-6.24-15.21c-.09-.22-.13-.43-.13-.63,0-.42.15-.79.45-1.1.3-.31.66-.46,1.08-.46.31,0,.6.09.86.27.27.18.45.41.56.7l5.08,12.58,5.18-12.52c.31-.69.79-1.03,1.43-1.03.42,0,.78.16,1.08.46.3.31.45.68.45,1.1,0,.2-.03.39-.1.56l-9.06,21.78c-.31.71-.79,1.06-1.43,1.06-.4,0-.74-.15-1.03-.45Z"/>
        <path d="m596.76,45.96c-1.28-.75-2.28-1.8-2.99-3.15-.71-1.35-1.06-2.88-1.06-4.58s.35-3.26,1.06-4.62c.71-1.35,1.71-2.39,3-3.12s2.78-1.1,4.47-1.1,3.17.37,4.45,1.1c1.31.75,2.31,1.8,3.02,3.14.71,1.34,1.06,2.87,1.06,4.6s-.35,3.25-1.06,4.58c-.73,1.37-1.74,2.42-3.04,3.15-1.29.73-2.77,1.1-4.43,1.1s-3.18-.37-4.48-1.1Zm-.17-4.35c.49.86,1.13,1.52,1.94,1.96.81.44,1.71.66,2.71.66.91,0,1.78-.21,2.62-.63.86-.44,1.55-1.12,2.06-2.04.51-.92.76-2.04.76-3.37,0-1.39-.27-2.52-.8-3.39-.49-.84-1.13-1.48-1.94-1.93-.81-.44-1.71-.66-2.71-.66-.91,0-1.78.2-2.62.6-.86.44-1.55,1.12-2.06,2.03-.51.91-.76,2.03-.76,3.35,0,1.42.27,2.56.8,3.42Z"/>
        <path d="m616.55,46.19c-.89-.58-1.57-1.36-2.06-2.36-.49-1-.73-2.1-.73-3.32v-9.43c0-.42.15-.78.46-1.08.31-.3.67-.45,1.1-.45s.78.15,1.08.45.45.66.45,1.08v9.1c0,2.68,1.21,4.02,3.62,4.02,1.06,0,2.02-.27,2.87-.8.85-.53,1.7-1.32,2.54-2.36v-9.96c0-.42.15-.78.46-1.08.31-.3.67-.45,1.1-.45s.78.15,1.08.45.45.66.45,1.08v14.24c0,.42-.15.79-.45,1.1s-.66.46-1.08.46-.79-.16-1.1-.46c-.31-.31-.46-.67-.46-1.1v-1.26c-.91.97-1.85,1.72-2.82,2.22-.97.51-2.08.76-3.32.76s-2.26-.29-3.19-.86Z"/>
        <path d="m635.14,42.64v-10.09h-1.66c-.42,0-.75-.12-.98-.35s-.35-.56-.35-.98.12-.75.35-.98.56-.35.98-.35h1.66v-2.36c0-.51.14-.9.42-1.16.28-.27.66-.4,1.15-.4s.86.14,1.13.42c.27.28.4.66.4,1.15v2.36h3.72c.38,0,.69.13.95.38.25.25.38.57.38.95,0,.35-.13.66-.38.93-.25.27-.57.4-.95.4h-3.72v9.83c0,.77.18,1.29.53,1.56.35.27.88.4,1.59.4.46,0,.91-.07,1.33-.2.04,0,.08-.01.1-.03.22-.04.41-.07.56-.07.33,0,.62.12.86.37.24.24.37.53.37.86,0,.51-.27.91-.8,1.2-.86.4-1.78.6-2.76.6-3.25,0-4.88-1.47-4.88-4.42Z"/>
      </g>
      <polygon class="cls-1" points="917.02 .24 699.51 .24 728.92 36.72 699.28 73.48 699.28 73.76 917.02 73.76 946.66 37 917.02 .24"/>
      <g>
        <path d="m786.16,47.54c-.3-.3-.45-.66-.45-1.08v-20.32c0-.42.15-.79.45-1.1.3-.31.66-.46,1.08-.46h7.57c2.08,0,3.8.35,5.15,1.06,1.24.66,2.17,1.53,2.81,2.61.63,1.07.95,2.32.95,3.74,0,1.31-.29,2.5-.86,3.59-.6,1.17-1.58,2.1-2.94,2.79-1.36.69-3.06,1.03-5.1,1.03h-6.01v7.07c0,.42-.16.78-.46,1.08-.31.3-.68.45-1.1.45s-.78-.15-1.08-.45Zm8.35-11.07c2.01,0,3.54-.38,4.57-1.15s1.54-1.88,1.54-3.34-.51-2.57-1.54-3.34-2.55-1.15-4.57-1.15h-5.31c-.27,0-.4.13-.4.4v8.57h5.71Z"/>
        <path d="m808.22,47.55c-.86-.4-1.54-.98-2.03-1.76-.49-.77-.73-1.66-.73-2.66,0-1.73.67-3.06,2.01-4,1.34-.94,3.23-1.41,5.66-1.41h3.98v-.23c0-1.42-.35-2.45-1.05-3.1-.7-.65-1.82-.98-3.37-.98-.8,0-1.52.06-2.16.18-.64.12-1.39.33-2.26.61l-.43.07c-.33,0-.63-.13-.88-.38-.25-.25-.38-.56-.38-.91,0-.62.3-1.05.9-1.29,1.86-.8,3.77-1.2,5.74-1.2,1.53,0,2.83.31,3.92.93,1.02.6,1.78,1.39,2.29,2.37.51.99.76,2.08.76,3.27v9.4c0,.42-.16.78-.46,1.08-.31.3-.68.45-1.1.45s-.78-.15-1.08-.45-.45-.66-.45-1.08v-.8c-1.59,1.66-3.66,2.49-6.21,2.49-.95,0-1.85-.2-2.69-.6Zm3.82-2.12c.95,0,1.88-.23,2.77-.68.9-.45,1.67-1.05,2.31-1.78v-2.76h-3.59c-3.32,0-4.98.86-4.98,2.59s1.16,2.62,3.49,2.62Z"/>
        <path d="m824.96,25.57c0-.46.17-.87.51-1.21.34-.34.75-.51,1.21-.51h.2c.46,0,.87.17,1.21.51.34.34.51.75.51,1.21v.13c0,.46-.17.87-.51,1.21-.34.34-.75.51-1.21.51h-.2c-.46,0-.87-.17-1.21-.51-.34-.34-.51-.75-.51-1.21v-.13Zm.71,21.96c-.3-.3-.45-.66-.45-1.08v-14.24c0-.42.15-.79.45-1.1.3-.31.66-.46,1.08-.46.44,0,.81.15,1.11.45s.45.67.45,1.11v14.24c0,.42-.16.78-.46,1.08-.31.3-.68.45-1.1.45s-.78-.15-1.08-.45Z"/>
        <path d="m833.94,47.54c-.3-.3-.45-.66-.45-1.08v-14.24c0-.42.15-.79.45-1.1.3-.31.66-.46,1.08-.46s.79.16,1.1.46c.31.31.46.68.46,1.1v1.26c.91-.97,1.85-1.72,2.82-2.22.97-.51,2.08-.76,3.32-.76s2.29.29,3.22.86c.88.58,1.57,1.36,2.04,2.36.48,1,.71,2.1.71,3.32v9.43c0,.42-.16.78-.46,1.08-.31.3-.68.45-1.1.45s-.78-.15-1.08-.45-.45-.66-.45-1.08v-9.1c0-2.68-1.21-4.02-3.62-4.02-1.06,0-2.02.27-2.87.8-.85.53-1.7,1.32-2.54,2.36v9.96c0,.42-.16.78-.46,1.08-.31.3-.68.45-1.1.45s-.78-.15-1.08-.45Z"/>
        <path d="m854.31,43.73v-10.09h-1.66c-.42,0-.75-.12-.98-.35s-.35-.56-.35-.98.12-.75.35-.98.56-.35.98-.35h1.66v-2.36c0-.51.14-.9.42-1.16.28-.27.66-.4,1.15-.4s.86.14,1.13.42c.27.28.4.66.4,1.15v2.36h3.72c.38,0,.69.13.95.38.25.25.38.57.38.95,0,.35-.13.66-.38.93-.25.27-.57.4-.95.4h-3.72v9.83c0,.77.18,1.29.53,1.56.35.27.88.4,1.59.4.46,0,.91-.07,1.33-.2.04,0,.08-.01.1-.03.22-.04.41-.07.56-.07.33,0,.62.12.86.37.24.24.37.53.37.86,0,.51-.27.91-.8,1.2-.86.4-1.78.6-2.76.6-3.25,0-4.88-1.47-4.88-4.42Z"/>
      </g>
      <polygon class="cls-1" points="1179.74 37 1179.55 36.76 1179.55 .23 1150.1 .23 1071.18 .23 932.59 .23 962 36.71 932.36 73.48 932.36 73.77 1071.18 73.77 1150.1 73.77 1179.55 73.77 1179.55 37.24 1179.74 37"/>
      <g>
        <path d="m993.16,45.31c-1.79-.97-3.19-2.37-4.2-4.18-1.01-1.81-1.51-3.92-1.51-6.31s.51-4.53,1.53-6.34c1-1.79,2.37-3.18,4.13-4.15,1.76-.97,3.76-1.46,5.99-1.46,1.46,0,2.78.17,3.95.5,1.17.33,2.38.85,3.62,1.56.51.24.76.68.76,1.29,0,.33-.13.63-.38.9-.25.27-.58.4-.98.4-.24,0-.44-.04-.6-.13-1.02-.53-1.99-.92-2.92-1.18-.93-.25-1.98-.38-3.15-.38-1.9,0-3.51.39-4.81,1.16-1.31.77-2.31,1.83-3,3.17-.7,1.34-1.05,2.89-1.05,4.67s.34,3.31,1.03,4.62c.69,1.39,1.7,2.47,3.05,3.24,1.35.76,2.94,1.15,4.78,1.15,1.17,0,2.22-.13,3.15-.38.93-.25,1.9-.65,2.92-1.18.15-.09.35-.13.6-.13.4,0,.72.13.98.38.25.25.38.56.38.91,0,.6-.25,1.03-.76,1.29-1.24.71-2.45,1.23-3.62,1.56-1.17.33-2.49.5-3.95.5-2.21,0-4.2-.49-5.94-1.46Z"/>
        <path d="m1013.81,45.68c-1.28-.75-2.28-1.8-2.99-3.15-.71-1.35-1.06-2.88-1.06-4.58s.35-3.26,1.06-4.62c.71-1.35,1.71-2.39,3-3.12s2.78-1.1,4.47-1.1,3.17.37,4.45,1.1c1.31.75,2.31,1.8,3.02,3.14.71,1.34,1.06,2.87,1.06,4.6s-.35,3.25-1.06,4.58c-.73,1.37-1.74,2.42-3.04,3.15s-2.77,1.1-4.43,1.1-3.18-.37-4.48-1.1Zm-.17-4.35c.49.86,1.13,1.52,1.94,1.96.81.44,1.71.66,2.71.66.91,0,1.78-.21,2.62-.63.86-.44,1.55-1.12,2.06-2.04.51-.92.76-2.04.76-3.37,0-1.39-.27-2.52-.8-3.39-.49-.84-1.13-1.48-1.94-1.93-.81-.44-1.71-.66-2.71-.66-.91,0-1.78.2-2.62.6-.86.44-1.55,1.12-2.06,2.03-.51.91-.76,2.03-.76,3.35,0,1.42.27,2.56.8,3.42Z"/>
        <path d="m1031.42,46.16c-.3-.3-.45-.66-.45-1.08v-14.24c0-.42.15-.79.45-1.1.3-.31.66-.46,1.08-.46s.79.16,1.1.46c.31.31.46.68.46,1.1v1.23c.69-.93,1.47-1.65,2.36-2.17.88-.52,1.97-.78,3.25-.78,1.2,0,2.24.32,3.14.95s1.54,1.44,1.94,2.44c1.37-2.26,3.41-3.39,6.11-3.39,1.28,0,2.33.31,3.15.93.8.6,1.4,1.38,1.81,2.36.41.97.61,2.01.61,3.12v9.56c0,.42-.16.78-.46,1.08-.31.3-.68.45-1.1.45s-.78-.15-1.08-.45-.45-.66-.45-1.08v-8.96c0-1.48-.26-2.55-.78-3.19-.52-.64-1.38-.96-2.57-.96-1.06,0-1.96.27-2.69.81-.73.54-1.42,1.32-2.06,2.34v9.96c0,.42-.16.78-.46,1.08-.31.3-.68.45-1.1.45s-.78-.15-1.08-.45-.45-.66-.45-1.08v-8.96c0-1.48-.26-2.55-.78-3.19-.52-.64-1.38-.96-2.57-.96-1.06,0-1.96.27-2.69.81-.73.54-1.42,1.32-2.06,2.34v9.96c0,.42-.16.78-.46,1.08-.31.3-.68.45-1.1.45s-.78-.15-1.08-.45Z"/>
        <path d="m1061.9,53.78c-.3-.31-.45-.67-.45-1.1v-21.88c0-.42.15-.78.45-1.08s.66-.45,1.08-.45.79.15,1.1.45c.31.3.46.66.46,1.08v.8c1.59-1.66,3.47-2.49,5.64-2.49,1.44,0,2.74.34,3.92,1.03,1.28.71,2.3,1.75,3.04,3.12.74,1.37,1.11,2.93,1.11,4.68s-.38,3.38-1.13,4.68c-.75,1.33-1.74,2.35-2.97,3.07s-2.55,1.08-3.97,1.08c-2.17,0-4.05-.83-5.64-2.49v8.4c0,.44-.15.81-.45,1.11s-.67.45-1.11.45-.78-.16-1.08-.46Zm5.05-10.56c.9.44,1.83.66,2.81.66,1.68,0,3-.53,3.97-1.58.96-1.05,1.44-2.51,1.44-4.37s-.48-3.31-1.44-4.37c-.96-1.05-2.29-1.58-3.97-1.58-.97,0-1.91.22-2.81.66-.9.44-1.7,1.04-2.41,1.79v6.97c.71.75,1.51,1.35,2.41,1.79Z"/>
        <path d="m1085.43,45.68c-1.28-.75-2.28-1.8-2.99-3.15-.71-1.35-1.06-2.88-1.06-4.58s.35-3.26,1.06-4.62c.71-1.35,1.71-2.39,3-3.12s2.78-1.1,4.47-1.1,3.17.37,4.45,1.1c1.31.75,2.31,1.8,3.02,3.14.71,1.34,1.06,2.87,1.06,4.6s-.35,3.25-1.06,4.58c-.73,1.37-1.74,2.42-3.04,3.15s-2.77,1.1-4.43,1.1-3.18-.37-4.48-1.1Zm-.17-4.35c.49.86,1.13,1.52,1.94,1.96.81.44,1.71.66,2.71.66.91,0,1.78-.21,2.62-.63.86-.44,1.55-1.12,2.06-2.04.51-.92.76-2.04.76-3.37,0-1.39-.27-2.52-.8-3.39-.49-.84-1.13-1.48-1.94-1.93-.81-.44-1.71-.66-2.71-.66-.91,0-1.78.2-2.62.6-.86.44-1.55,1.12-2.06,2.03-.51.91-.76,2.03-.76,3.35,0,1.42.27,2.56.8,3.42Z"/>
        <path d="m1102.03,45.28c-.38-.27-.56-.64-.56-1.13,0-.35.13-.67.38-.95.25-.28.57-.42.95-.42.22,0,.42.04.6.13.75.33,1.48.58,2.19.75.71.17,1.48.25,2.32.25,2.43,0,3.65-.77,3.65-2.32,0-.49-.27-.86-.8-1.13-.55-.27-1.48-.56-2.79-.9-1.28-.29-2.36-.61-3.22-.96-.95-.35-1.72-.89-2.29-1.59-.58-.71-.86-1.58-.86-2.62,0-1.57.58-2.84,1.73-3.82,1.15-.97,2.74-1.46,4.78-1.46,1.77,0,3.38.28,4.81.83.31.09.55.25.73.5.18.24.27.51.27.8,0,.35-.13.67-.4.95-.27.28-.59.42-.96.42l-.43-.07c-1.33-.4-2.59-.6-3.79-.6s-2.07.21-2.76.63c-.69.42-1.03.97-1.03,1.66,0,.64.3,1.12.9,1.43.64.29,1.6.59,2.89.9,1.2.31,2.26.63,3.19.96.91.35,1.64.89,2.19,1.61.55.72.83,1.62.83,2.71,0,1.44-.58,2.62-1.73,3.55-1.15.93-2.72,1.39-4.71,1.39-2.19,0-4.22-.5-6.08-1.49Z"/>
        <path d="m1118.27,24.2c0-.46.17-.87.51-1.21.34-.34.75-.51,1.21-.51h.2c.46,0,.87.17,1.21.51.34.34.51.75.51,1.21v.13c0,.46-.17.87-.51,1.21-.34.34-.75.51-1.21.51h-.2c-.46,0-.87-.17-1.21-.51-.34-.34-.51-.75-.51-1.21v-.13Zm.71,21.96c-.3-.3-.45-.66-.45-1.08v-14.24c0-.42.15-.79.45-1.1.3-.31.66-.46,1.08-.46.44,0,.81.15,1.11.45s.45.67.45,1.11v14.24c0,.42-.16.78-.46,1.08-.31.3-.68.45-1.1.45s-.78-.15-1.08-.45Z"/>
        <path d="m1127.8,42.36v-10.09h-1.66c-.42,0-.75-.12-.98-.35s-.35-.56-.35-.98.12-.75.35-.98.56-.35.98-.35h1.66v-2.36c0-.51.14-.9.42-1.16.28-.27.66-.4,1.15-.4s.86.14,1.13.42c.27.28.4.66.4,1.15v2.36h3.72c.38,0,.69.13.95.38.25.25.38.57.38.95,0,.35-.13.66-.38.93-.25.27-.57.4-.95.4h-3.72v9.83c0,.77.18,1.29.53,1.56.35.27.88.4,1.59.4.46,0,.91-.07,1.33-.2.04,0,.08-.01.1-.03.22-.04.41-.07.56-.07.33,0,.62.12.86.37.24.24.37.53.37.86,0,.51-.27.91-.8,1.2-.86.4-1.78.6-2.76.6-3.25,0-4.88-1.47-4.88-4.42Z"/>
        <path d="m1140.5,44.45c-1.52-1.55-2.27-3.72-2.27-6.51,0-1.5.29-2.96.86-4.35.6-1.39,1.5-2.49,2.72-3.29,1.22-.8,2.68-1.2,4.38-1.2s3.07.38,4.28,1.13c1.15.75,2.05,1.77,2.69,3.04.64,1.27.96,2.68.96,4.23,0,.42-.14.78-.43,1.08-.29.3-.66.45-1.13.45h-11.22c.2,1.57.79,2.77,1.78,3.6.98.83,2.32,1.25,4,1.25.88,0,1.68-.08,2.37-.25s1.4-.43,2.11-.78c.15-.09.35-.13.6-.13.35,0,.67.13.95.38.28.25.42.57.42.95,0,.51-.3.93-.9,1.26-.93.51-1.82.88-2.66,1.11-.84.23-1.89.35-3.15.35-2.72,0-4.84-.77-6.36-2.32Zm10.14-7.94c.29,0,.42-.14.4-.43-.09-.89-.35-1.63-.8-2.22-.49-.71-1.09-1.24-1.81-1.59-.72-.35-1.47-.53-2.24-.53-.71,0-1.45.17-2.22.5-.78.38-1.39.94-1.84,1.68-.45.74-.71,1.61-.78,2.61h9.3Z"/>
      </g>
      <g>
        <path d="m1126.88,98.62c-.16-.16-.24-.35-.24-.57v-10.67c0-.22.08-.42.24-.58s.35-.25.57-.25h4.15c1.23,0,2.2.28,2.9.85s1.05,1.35,1.05,2.35c0,.64-.15,1.2-.46,1.66s-.71.81-1.23,1.05c.73.23,1.3.6,1.73,1.1s.64,1.11.64,1.84c0,1.14-.38,2-1.15,2.58s-1.9.88-3.38.88h-4.25c-.22,0-.41-.08-.57-.24Zm4.3-6.76c1.01,0,1.73-.17,2.16-.5s.65-.83.65-1.49c0-.55-.23-.99-.68-1.31s-1.06-.48-1.84-.48h-2.99c-.14,0-.21.07-.21.21v3.57h2.9Zm-2.69,5.47h3.06c1.1,0,1.9-.17,2.38-.5s.73-.83.73-1.5c0-1.32-1.03-1.99-3.09-1.99h-3.29v3.78c0,.14.07.21.21.21Z"/>
        <path d="m1139.99,102.75c-.15-.16-.23-.34-.23-.55,0-.09.02-.19.05-.28l1.14-2.94-3.3-8.05c-.05-.12-.07-.23-.07-.33,0-.22.08-.42.24-.58s.35-.25.57-.25c.16,0,.32.05.46.14s.24.22.3.37l2.69,6.66,2.74-6.63c.16-.36.42-.54.76-.54.22,0,.41.08.57.25s.24.36.24.58c0,.11-.02.21-.05.3l-4.8,11.53c-.16.38-.42.56-.76.56-.21,0-.39-.08-.54-.24Z"/>
        <path d="m1153.78,98.62c-.16-.16-.24-.35-.24-.57v-10.67c0-.22.08-.42.24-.58s.35-.25.57-.25h7.05c.21,0,.39.08.54.23s.23.33.23.54-.08.39-.23.54-.33.22-.54.22h-6.01c-.14,0-.21.07-.21.21v3.64h5.59c.21,0,.39.08.54.23s.23.33.23.54-.08.39-.23.54-.33.22-.54.22h-5.59v3.66c0,.14.07.21.21.21h6.01c.21,0,.39.08.54.23s.23.33.23.54-.08.39-.23.54-.33.22-.54.22h-7.05c-.22,0-.41-.08-.57-.24Z"/>
        <path d="m1164.99,98.71c-.16-.16-.24-.35-.24-.57v-10.49c0-.32.11-.59.34-.83s.5-.35.82-.35h.58c.22,0,.43.07.63.2s.35.32.46.55l3.83,9.56c.04.08.08.12.14.12s.11-.04.14-.12l3.83-9.56c.11-.23.26-.42.46-.55s.41-.2.63-.2h.58c.32,0,.59.12.82.35s.34.51.34.83v10.49c0,.22-.08.41-.24.57s-.35.24-.57.24-.42-.08-.58-.24-.25-.35-.25-.57v-9.28c0-.11-.04-.16-.11-.16-.05,0-.09.04-.12.11l-3.8,9.39c-.09.22-.25.4-.46.54s-.44.21-.69.21-.47-.07-.69-.21-.36-.32-.46-.54l-3.8-9.39c-.04-.07-.08-.11-.12-.11-.07,0-.11.05-.11.16v9.28c0,.22-.08.41-.25.57s-.36.24-.58.24-.41-.08-.57-.24Z"/>
      </g>
    </g>
  </g>
</svg>